<svg width="180" height="180" viewBox="0 0 180 180" fill="none" xmlns="http://www.w3.org/2000/svg">
<path d="M19.8044 180H40.2038V160.201H19.8044V180Z" fill="#EAEAEB"/>
<path d="M0.00488281 160.201H19.8044V139.801H0.00488281V160.201Z" fill="#EAEAEB"/>
<path d="M40.2038 160.201H60.0033V139.801H40.2038V160.201Z" fill="#EAEAEB"/>
<path d="M19.8044 139.801H40.2038V120.002H19.8044V139.801Z" fill="#EAEAEB"/>
<circle cx="2.39994" cy="2.39994" r="2.39994" transform="matrix(1 0 0 -1 19.8047 54.6016)" fill="#EAEAEB"/>
<circle cx="2.39994" cy="2.39994" r="2.39994" transform="matrix(1 0 0 -1 12.6045 47.3984)" fill="#EAEAEB"/>
<circle cx="2.39994" cy="2.39994" r="2.39994" transform="matrix(1 0 0 -1 5.4043 40.1992)" fill="#EAEAEB"/>
<circle cx="2.39994" cy="2.39994" r="2.39994" transform="matrix(1 0 0 -1 19.8047 40.1992)" fill="#EAEAEB"/>
<circle cx="2.39994" cy="2.39994" r="2.39994" transform="matrix(1 0 0 -1 5.4043 54.6016)" fill="#EAEAEB"/>
<circle cx="2.39994" cy="2.39994" r="2.39994" transform="matrix(1 0 0 -1 49.8037 24.6016)" fill="#EAEAEB"/>
<circle cx="2.39994" cy="2.39994" r="2.39994" transform="matrix(1 0 0 -1 35.4043 24.6016)" fill="#EAEAEB"/>
<circle cx="2.39994" cy="2.39994" r="2.39994" transform="matrix(1 0 0 -1 49.8037 10.2031)" fill="#EAEAEB"/>
<circle cx="2.39994" cy="2.39994" r="2.39994" transform="matrix(1 0 0 -1 42.6035 17.4023)" fill="#EAEAEB"/>
<circle cx="2.39994" cy="2.39994" r="2.39994" transform="matrix(1 0 0 -1 35.4043 10.2031)" fill="#EAEAEB"/>
<path fill-rule="evenodd" clip-rule="evenodd" d="M79.8014 160.203H60.002V139.804H79.8014V160.203ZM69.9011 145.204C72.3863 145.204 74.401 147.218 74.401 149.703C74.401 152.189 72.3863 154.203 69.9011 154.203C67.4159 154.203 65.4012 152.189 65.4012 149.703C65.4012 147.218 67.4159 145.204 69.9011 145.204Z" fill="#EAEAEB"/>
<path fill-rule="evenodd" clip-rule="evenodd" d="M120 160.203H100.2V139.804H120V160.203ZM110.099 145.204C112.585 145.204 114.599 147.218 114.599 149.703C114.599 152.189 112.585 154.203 110.099 154.203C107.614 154.203 105.599 152.189 105.599 149.703C105.599 147.218 107.614 145.204 110.099 145.204Z" fill="#EAEAEB"/>
<path fill-rule="evenodd" clip-rule="evenodd" d="M100.2 139.805H79.8008V120.005H100.2V139.805ZM90.2999 125.405C92.7851 125.405 94.7998 127.42 94.7998 129.905C94.7998 132.39 92.7851 134.405 90.2999 134.405C87.8147 134.405 85.8 132.39 85.8 129.905C85.8 127.42 87.8147 125.405 90.2999 125.405Z" fill="#EAEAEB"/>
<path fill-rule="evenodd" clip-rule="evenodd" d="M100.2 180H79.8008V160.201H100.2V180ZM90.2999 165.6C92.7851 165.6 94.7998 167.615 94.7998 170.1C94.7998 172.585 92.7851 174.6 90.2999 174.6C87.8147 174.6 85.8 172.585 85.8 170.1C85.8 167.615 87.8147 165.6 90.2999 165.6Z" fill="#EAEAEB"/>
<rect width="10.1997" height="10.1997" transform="matrix(1 0 0 -1 19.8018 120)" fill="#EAEAEB"/>
<rect width="10.1997" height="10.1997" transform="matrix(1 0 0 -1 49.8018 90)" fill="#EAEAEB"/>
<rect width="10.1997" height="10.1997" transform="matrix(1 0 0 -1 0.000976562 120)" fill="#EAEAEB"/>
<rect width="10.1997" height="10.1997" transform="matrix(1 0 0 -1 30 90)" fill="#EAEAEB"/>
<rect width="10.1997" height="10.1997" transform="matrix(1 0 0 -1 19.8018 100.199)" fill="#EAEAEB"/>
<rect width="10.1997" height="10.1997" transform="matrix(1 0 0 -1 49.8018 70.1992)" fill="#EAEAEB"/>
<rect width="9.59975" height="9.59975" transform="matrix(1 0 0 -1 10.2012 109.801)" fill="#EAEAEB"/>
<rect width="9.59975" height="9.59975" transform="matrix(1 0 0 -1 40.2002 79.8008)" fill="#EAEAEB"/>
<rect width="10.1997" height="10.1997" transform="matrix(1 0 0 -1 0.000976562 100.199)" fill="#EAEAEB"/>
<rect width="10.1997" height="10.1997" transform="matrix(1 0 0 -1 30 70.2031)" fill="#EAEAEB"/>
<rect width="9.59975" height="10.1997" transform="matrix(1 0 0 -1 40.2002 120)" fill="#EAEAEB"/>
<rect width="9.59975" height="10.1997" transform="matrix(1 0 0 -1 10.2012 90)" fill="#EAEAEB"/>
<rect width="10.1997" height="9.59975" transform="matrix(1 0 0 -1 30 109.801)" fill="#EAEAEB"/>
<rect width="10.1997" height="9.59975" transform="matrix(1 0 0 -1 0.000976562 79.8008)" fill="#EAEAEB"/>
<rect width="10.1997" height="9.59975" transform="matrix(1 0 0 -1 49.7998 109.801)" fill="#EAEAEB"/>
<rect width="10.1997" height="9.59975" transform="matrix(1 0 0 -1 19.8008 79.8008)" fill="#EAEAEB"/>
<rect width="9.59975" height="10.1997" transform="matrix(1 0 0 -1 40.2002 100.199)" fill="#EAEAEB"/>
<rect width="9.59975" height="10.1997" transform="matrix(1 0 0 -1 10.2012 70.1992)" fill="#EAEAEB"/>
<path d="M144.6 172.202C144.6 170.876 143.525 169.802 142.2 169.802C140.875 169.802 139.8 170.876 139.8 172.202C139.8 173.527 140.875 174.602 142.2 174.602C143.525 174.602 144.6 173.527 144.6 172.202Z" fill="#EAEAEB"/>
<path d="M137.4 165.002C137.4 163.676 136.326 162.602 135 162.602C133.675 162.602 132.6 163.676 132.6 165.002C132.6 166.327 133.675 167.402 135 167.402C136.326 167.402 137.4 166.327 137.4 165.002Z" fill="#EAEAEB"/>
<path d="M130.2 157.802C130.2 156.477 129.126 155.402 127.8 155.402C126.475 155.402 125.4 156.477 125.4 157.802C125.4 159.127 126.475 160.202 127.8 160.202C129.126 160.202 130.2 159.127 130.2 157.802Z" fill="#EAEAEB"/>
<path d="M144.6 157.802C144.6 156.477 143.525 155.402 142.2 155.402C140.875 155.402 139.8 156.477 139.8 157.802C139.8 159.127 140.875 160.202 142.2 160.202C143.525 160.202 144.6 159.127 144.6 157.802Z" fill="#EAEAEB"/>
<path d="M130.2 172.202C130.2 170.876 129.126 169.802 127.8 169.802C126.475 169.802 125.4 170.876 125.4 172.202C125.4 173.527 126.475 174.602 127.8 174.602C129.126 174.602 130.2 173.527 130.2 172.202Z" fill="#EAEAEB"/>
<path d="M174.599 142.202C174.599 140.877 173.525 139.802 172.199 139.802C170.874 139.802 169.799 140.877 169.799 142.202C169.799 143.528 170.874 144.602 172.199 144.602C173.525 144.602 174.599 143.528 174.599 142.202Z" fill="#EAEAEB"/>
<path d="M160.199 142.202C160.199 140.877 159.125 139.802 157.8 139.802C156.474 139.802 155.4 140.877 155.4 142.202C155.4 143.528 156.474 144.602 157.8 144.602C159.125 144.602 160.199 143.528 160.199 142.202Z" fill="#EAEAEB"/>
<path d="M174.599 127.803C174.599 126.477 173.525 125.403 172.199 125.403C170.874 125.403 169.799 126.477 169.799 127.803C169.799 129.128 170.874 130.203 172.199 130.203C173.525 130.203 174.599 129.128 174.599 127.803Z" fill="#EAEAEB"/>
<path d="M167.399 135.003C167.399 133.677 166.325 132.603 164.999 132.603C163.674 132.603 162.599 133.677 162.599 135.003C162.599 136.328 163.674 137.403 164.999 137.403C166.325 137.403 167.399 136.328 167.399 135.003Z" fill="#EAEAEB"/>
<path d="M160.199 127.803C160.199 126.477 159.125 125.403 157.8 125.403C156.474 125.403 155.4 126.477 155.4 127.803C155.4 129.128 156.474 130.203 157.8 130.203C159.125 130.203 160.199 129.128 160.199 127.803Z" fill="#EAEAEB"/>
</svg>
