<svg width="160" height="320" viewBox="0 0 160 320" fill="none" xmlns="http://www.w3.org/2000/svg">
<rect x="80" y="80" width="13.6" height="40" fill="#383838"/>
<rect x="133.6" y="80" width="12.8" height="40" fill="#383838"/>
<rect x="106.4" y="80" width="14.4" height="40" fill="#383838"/>
<rect x="93.5996" y="120" width="12.8" height="40" fill="#383838"/>
<rect x="146.4" y="120" width="13.6" height="40" fill="#383838"/>
<rect x="120.8" y="120" width="12.8" height="40" fill="#383838"/>
<rect width="13.6" height="13.6" fill="#383838"/>
<rect x="66.4004" y="66.4" width="13.6" height="13.6" fill="#383838"/>
<rect x="13.5996" y="13.6" width="12.8" height="12.8" fill="#383838"/>
<rect x="53.5996" y="53.6" width="12.8" height="12.8" fill="#383838"/>
<rect x="53.5996" width="12.8" height="13.6" fill="#383838"/>
<rect y="53.6" width="13.6" height="12.8" fill="#383838"/>
<rect x="66.4004" y="13.6" width="13.6" height="12.8" fill="#383838"/>
<rect x="13.5996" y="66.4" width="12.8" height="13.6" fill="#383838"/>
<path fill-rule="evenodd" clip-rule="evenodd" d="M106.4 186.4H80V213.6H106.4V186.4ZM93.2 206.4C96.5137 206.4 99.2 203.714 99.2 200.4C99.2 197.086 96.5137 194.4 93.2 194.4C89.8863 194.4 87.2 197.086 87.2 200.4C87.2 203.714 89.8863 206.4 93.2 206.4Z" fill="#383838"/>
<path fill-rule="evenodd" clip-rule="evenodd" d="M160.001 186.4H133.601V213.6H160.001V186.4ZM146.801 206.4C150.114 206.4 152.801 203.714 152.801 200.4C152.801 197.087 150.114 194.4 146.801 194.4C143.487 194.4 140.801 197.087 140.801 200.4C140.801 203.714 143.487 206.4 146.801 206.4Z" fill="#383838"/>
<path fill-rule="evenodd" clip-rule="evenodd" d="M133.599 213.6H106.399V240H133.599V213.6ZM120.399 232.8C123.713 232.8 126.399 230.114 126.399 226.8C126.399 223.486 123.713 220.8 120.399 220.8C117.086 220.8 114.399 223.486 114.399 226.8C114.399 230.114 117.086 232.8 120.399 232.8Z" fill="#383838"/>
<path fill-rule="evenodd" clip-rule="evenodd" d="M133.599 160H106.399V186.4H133.599V160ZM120.399 179.2C123.713 179.2 126.399 176.514 126.399 173.2C126.399 169.886 123.713 167.2 120.399 167.2C117.086 167.2 114.399 169.886 114.399 173.2C114.399 176.514 117.086 179.2 120.399 179.2Z" fill="#383838"/>
<rect x="106.4" width="27.2" height="13.6" fill="#383838"/>
<rect x="146.4" width="13.6" height="13.6" fill="#383838"/>
<rect x="80" width="13.6" height="13.6" fill="#383838"/>
<rect x="106.4" y="26.4" width="27.2" height="27.2" fill="#383838"/>
<rect x="146.4" y="26.4" width="13.6" height="27.2" fill="#383838"/>
<rect x="146.4" y="66.4" width="13.6" height="13.6" fill="#383838"/>
<rect x="106.4" y="66.4" width="27.2" height="13.6" fill="#383838"/>
<rect x="93.5996" y="13.6" width="12.8" height="12.8" fill="#383838"/>
<rect x="133.6" y="13.6" width="12.8" height="12.8" fill="#383838"/>
<rect x="133.6" y="53.6" width="12.8" height="12.8" fill="#383838"/>
<rect x="93.5996" y="53.6" width="12.8" height="12.8" fill="#383838"/>
<rect x="80" y="26.4" width="13.6" height="27.2" fill="#383838"/>
<rect x="80" y="66.4" width="13.6" height="13.6" fill="#383838"/>
<circle cx="29.6004" cy="250.4" r="3.2" fill="#383838"/>
<circle cx="19.9998" cy="260" r="3.2" fill="#383838"/>
<circle cx="10.4002" cy="269.6" r="3.2" fill="#383838"/>
<circle cx="29.6004" cy="269.6" r="3.2" fill="#383838"/>
<circle cx="10.4002" cy="250.4" r="3.2" fill="#383838"/>
<circle cx="69.6004" cy="290.4" r="3.2" fill="#383838"/>
<circle cx="50.4002" cy="290.4" r="3.2" fill="#383838"/>
<circle cx="69.6004" cy="309.6" r="3.2" fill="#383838"/>
<circle cx="59.9998" cy="300" r="3.2" fill="#383838"/>
<circle cx="50.4002" cy="309.6" r="3.2" fill="#383838"/>
</svg>
