<svg width="150" height="150" viewBox="0 0 150 150" fill="none" xmlns="http://www.w3.org/2000/svg">
<rect width="8.5" height="8.5" transform="matrix(1 0 0 -1 116.5 150)" fill="#EAEAEB"/>
<rect width="8.5" height="8.5" transform="matrix(1 0 0 -1 141.5 125)" fill="#EAEAEB"/>
<rect width="8.5" height="8.5" transform="matrix(1 0 0 -1 100 150)" fill="#EAEAEB"/>
<rect width="8.5" height="8.5" transform="matrix(1 0 0 -1 125 125)" fill="#EAEAEB"/>
<rect width="8.5" height="8.5" transform="matrix(1 0 0 -1 116.5 133.5)" fill="#EAEAEB"/>
<rect width="8.5" height="8.5" transform="matrix(1 0 0 -1 141.5 108.5)" fill="#EAEAEB"/>
<rect width="8" height="8" transform="matrix(1 0 0 -1 108.5 141.5)" fill="#EAEAEB"/>
<rect width="8" height="8" transform="matrix(1 0 0 -1 133.5 116.5)" fill="#EAEAEB"/>
<rect width="8.5" height="8.5" transform="matrix(1 0 0 -1 100 133.5)" fill="#EAEAEB"/>
<rect width="8.5" height="8.5" transform="matrix(1 0 0 -1 125 108.5)" fill="#EAEAEB"/>
<rect width="8" height="8.5" transform="matrix(1 0 0 -1 133.5 150)" fill="#EAEAEB"/>
<rect width="8" height="8.5" transform="matrix(1 0 0 -1 108.5 125)" fill="#EAEAEB"/>
<rect width="8.5" height="8" transform="matrix(1 0 0 -1 125 141.5)" fill="#EAEAEB"/>
<rect width="8.5" height="8" transform="matrix(1 0 0 -1 100 116.5)" fill="#EAEAEB"/>
<rect width="8.5" height="8" transform="matrix(1 0 0 -1 141.5 141.5)" fill="#EAEAEB"/>
<rect width="8.5" height="8" transform="matrix(1 0 0 -1 116.5 116.5)" fill="#EAEAEB"/>
<rect width="8" height="8.5" transform="matrix(1 0 0 -1 133.5 133.5)" fill="#EAEAEB"/>
<rect width="8" height="8.5" transform="matrix(1 0 0 -1 108.5 108.5)" fill="#EAEAEB"/>
<rect width="8" height="8.5" transform="matrix(1 0 0 -1 8.5 150)" fill="#EAEAEB"/>
<rect width="8" height="8.5" transform="matrix(1 0 0 -1 33.5 150)" fill="#EAEAEB"/>
<rect width="8" height="17" transform="matrix(1 0 0 -1 8.5 133.5)" fill="#EAEAEB"/>
<rect width="8.5" height="8" transform="matrix(1 0 0 -1 0 141.5)" fill="#EAEAEB"/>
<rect width="8.5" height="8" transform="matrix(1 0 0 -1 0 116.5)" fill="#EAEAEB"/>
<rect width="17" height="8" transform="matrix(1 0 0 -1 16.5 141.5)" fill="#EAEAEB"/>
<rect width="8.5" height="8" transform="matrix(1 0 0 -1 41.5 141.5)" fill="#EAEAEB"/>
<rect width="8.5" height="8" transform="matrix(1 0 0 -1 41.5 116.5)" fill="#EAEAEB"/>
<rect width="17" height="8" transform="matrix(1 0 0 -1 16.5 116.5)" fill="#EAEAEB"/>
<rect width="8" height="17" transform="matrix(1 0 0 -1 33.5 133.5)" fill="#EAEAEB"/>
<rect width="8" height="8.5" transform="matrix(1 0 0 -1 33.5 108.5)" fill="#EAEAEB"/>
<rect width="8" height="8.5" transform="matrix(1 0 0 -1 8.5 108.5)" fill="#EAEAEB"/>
<rect width="17" height="16.5" transform="matrix(1 0 0 -1 66.5 150)" fill="#EAEAEB"/>
<rect width="16.5" height="17" transform="matrix(1 0 0 -1 50 133.5)" fill="#EAEAEB"/>
<rect width="16.5" height="17" transform="matrix(1 0 0 -1 83.5 133.5)" fill="#EAEAEB"/>
<rect width="17" height="16.5" transform="matrix(1 0 0 -1 66.5 116.5)" fill="#EAEAEB"/>
<rect width="8.5" height="25" transform="matrix(1 0 0 -1 100 100)" fill="#EAEAEB"/>
<rect width="8" height="25" transform="matrix(1 0 0 -1 133.5 100)" fill="#EAEAEB"/>
<rect width="9" height="25" transform="matrix(1 0 0 -1 116.5 100)" fill="#EAEAEB"/>
<rect width="8" height="25" transform="matrix(1 0 0 -1 108.5 75)" fill="#EAEAEB"/>
<rect width="8.5" height="25" transform="matrix(1 0 0 -1 141.5 75)" fill="#EAEAEB"/>
<rect width="8" height="25" transform="matrix(1 0 0 -1 125.5 75)" fill="#EAEAEB"/>
<rect width="8.5" height="8.5" transform="matrix(1 0 0 -1 50 100)" fill="#EAEAEB"/>
<rect width="8.5" height="8.5" transform="matrix(1 0 0 -1 91.5 58.5)" fill="#EAEAEB"/>
<rect width="8" height="8" transform="matrix(1 0 0 -1 58.5 91.5)" fill="#EAEAEB"/>
<rect width="8" height="8" transform="matrix(1 0 0 -1 83.5 66.5)" fill="#EAEAEB"/>
<rect width="8" height="8.5" transform="matrix(1 0 0 -1 83.5 100)" fill="#EAEAEB"/>
<rect width="8.5" height="8" transform="matrix(1 0 0 -1 50 66.5)" fill="#EAEAEB"/>
<rect width="8.5" height="8" transform="matrix(1 0 0 -1 91.5 91.5)" fill="#EAEAEB"/>
<rect width="8" height="8.5" transform="matrix(1 0 0 -1 58.5 58.5)" fill="#EAEAEB"/>
<circle cx="2" cy="2" r="2" transform="matrix(1 0 0 -1 16.5 45.5)" fill="#EAEAEB"/>
<circle cx="2" cy="2" r="2" transform="matrix(1 0 0 -1 10.5 39.5)" fill="#EAEAEB"/>
<circle cx="2" cy="2" r="2" transform="matrix(1 0 0 -1 4.5 33.5)" fill="#EAEAEB"/>
<circle cx="2" cy="2" r="2" transform="matrix(1 0 0 -1 16.5 33.5)" fill="#EAEAEB"/>
<circle cx="2" cy="2" r="2" transform="matrix(1 0 0 -1 4.5 45.5)" fill="#EAEAEB"/>
<circle cx="2" cy="2" r="2" transform="matrix(1 0 0 -1 41.5 20.5)" fill="#EAEAEB"/>
<circle cx="2" cy="2" r="2" transform="matrix(1 0 0 -1 29.5 20.5)" fill="#EAEAEB"/>
<circle cx="2" cy="2" r="2" transform="matrix(1 0 0 -1 41.5 8.5)" fill="#EAEAEB"/>
<circle cx="2" cy="2" r="2" transform="matrix(1 0 0 -1 35.5 14.5)" fill="#EAEAEB"/>
<circle cx="2" cy="2" r="2" transform="matrix(1 0 0 -1 29.5 8.5)" fill="#EAEAEB"/>
</svg>
