<svg width="240" height="320" viewBox="0 0 240 320" fill="none" xmlns="http://www.w3.org/2000/svg">
<rect width="80" height="80" transform="matrix(-1 0 0 -1 239.996 320)" fill="#DBDBDB"/>
<circle cx="50.3957" cy="309.6" r="3.2" transform="rotate(180 50.3957 309.6)" fill="#DBDBDB"/>
<circle cx="59.9963" cy="300" r="3.2" transform="rotate(180 59.9963 300)" fill="#DBDBDB"/>
<circle cx="69.5959" cy="290.4" r="3.2" transform="rotate(180 69.5959 290.4)" fill="#DBDBDB"/>
<circle cx="50.3957" cy="290.4" r="3.2" transform="rotate(180 50.3957 290.4)" fill="#DBDBDB"/>
<circle cx="69.5959" cy="309.6" r="3.2" transform="rotate(180 69.5959 309.6)" fill="#DBDBDB"/>
<circle cx="10.3957" cy="269.6" r="3.2" transform="rotate(180 10.3957 269.6)" fill="#DBDBDB"/>
<circle cx="29.5959" cy="269.6" r="3.2" transform="rotate(180 29.5959 269.6)" fill="#DBDBDB"/>
<circle cx="10.3957" cy="250.4" r="3.2" transform="rotate(180 10.3957 250.4)" fill="#DBDBDB"/>
<circle cx="19.9963" cy="260" r="3.2" transform="rotate(180 19.9963 260)" fill="#DBDBDB"/>
<circle cx="29.5959" cy="250.4" r="3.2" transform="rotate(180 29.5959 250.4)" fill="#DBDBDB"/>
<circle cx="210.396" cy="69.6001" r="3.2" transform="rotate(180 210.396 69.6001)" fill="#DBDBDB"/>
<circle cx="219.996" cy="60" r="3.2" transform="rotate(180 219.996 60)" fill="#DBDBDB"/>
<circle cx="229.596" cy="50.4" r="3.2" transform="rotate(180 229.596 50.4)" fill="#DBDBDB"/>
<circle cx="210.396" cy="50.4" r="3.2" transform="rotate(180 210.396 50.4)" fill="#DBDBDB"/>
<circle cx="229.596" cy="69.6001" r="3.2" transform="rotate(180 229.596 69.6001)" fill="#DBDBDB"/>
<circle cx="170.396" cy="29.6" r="3.2" transform="rotate(180 170.396 29.6)" fill="#DBDBDB"/>
<circle cx="189.596" cy="29.6" r="3.2" transform="rotate(180 189.596 29.6)" fill="#DBDBDB"/>
<circle cx="170.396" cy="10.4" r="3.2" transform="rotate(180 170.396 10.4)" fill="#DBDBDB"/>
<circle cx="179.996" cy="20" r="3.2" transform="rotate(180 179.996 20)" fill="#DBDBDB"/>
<circle cx="189.596" cy="10.4" r="3.2" transform="rotate(180 189.596 10.4)" fill="#DBDBDB"/>
<path fill-rule="evenodd" clip-rule="evenodd" d="M213.6 213.6H240V186.4H213.6V213.6ZM226.8 193.6C223.486 193.6 220.8 196.286 220.8 199.6C220.8 202.914 223.486 205.6 226.8 205.6C230.114 205.6 232.8 202.914 232.8 199.6C232.8 196.286 230.114 193.6 226.8 193.6Z" fill="#DBDBDB"/>
<path fill-rule="evenodd" clip-rule="evenodd" d="M159.999 213.6H186.399V186.4H159.999V213.6ZM173.199 193.6C169.886 193.6 167.199 196.286 167.199 199.6C167.199 202.913 169.886 205.6 173.199 205.6C176.513 205.6 179.199 202.913 179.199 199.6C179.199 196.286 176.513 193.6 173.199 193.6Z" fill="#DBDBDB"/>
<path fill-rule="evenodd" clip-rule="evenodd" d="M186.401 186.4H213.601V160H186.401V186.4ZM199.601 167.2C196.287 167.2 193.601 169.886 193.601 173.2C193.601 176.514 196.287 179.2 199.601 179.2C202.914 179.2 205.601 176.514 205.601 173.2C205.601 169.886 202.914 167.2 199.601 167.2Z" fill="#DBDBDB"/>
<path fill-rule="evenodd" clip-rule="evenodd" d="M186.401 240H213.601V213.6H186.401V240ZM199.601 220.8C196.287 220.8 193.601 223.486 193.601 226.8C193.601 230.114 196.287 232.8 199.601 232.8C202.914 232.8 205.601 230.114 205.601 226.8C205.601 223.486 202.914 220.8 199.601 220.8Z" fill="#DBDBDB"/>
<rect x="213.6" y="160" width="13.6" height="13.6" transform="rotate(180 213.6 160)" fill="#DBDBDB"/>
<rect x="173.6" y="120" width="13.6" height="13.6" transform="rotate(180 173.6 120)" fill="#DBDBDB"/>
<rect x="240" y="160" width="13.6" height="13.6" transform="rotate(180 240 160)" fill="#DBDBDB"/>
<rect x="200" y="120" width="13.6" height="13.6" transform="rotate(180 200 120)" fill="#DBDBDB"/>
<rect x="213.6" y="133.6" width="13.6" height="13.6" transform="rotate(180 213.6 133.6)" fill="#DBDBDB"/>
<rect x="173.6" y="93.6" width="13.6" height="13.6" transform="rotate(180 173.6 93.6)" fill="#DBDBDB"/>
<rect x="226.4" y="146.4" width="12.8" height="12.8" transform="rotate(180 226.4 146.4)" fill="#DBDBDB"/>
<rect x="186.4" y="106.4" width="12.8" height="12.8" transform="rotate(180 186.4 106.4)" fill="#DBDBDB"/>
<rect x="240" y="133.6" width="13.6" height="13.6" transform="rotate(180 240 133.6)" fill="#DBDBDB"/>
<rect x="200" y="93.6" width="13.6" height="13.6" transform="rotate(180 200 93.6)" fill="#DBDBDB"/>
<rect x="186.4" y="160" width="12.8" height="13.6" transform="rotate(180 186.4 160)" fill="#DBDBDB"/>
<rect x="226.4" y="120" width="12.8" height="13.6" transform="rotate(180 226.4 120)" fill="#DBDBDB"/>
<rect x="200" y="146.4" width="13.6" height="12.8" transform="rotate(180 200 146.4)" fill="#DBDBDB"/>
<rect x="240" y="106.4" width="13.6" height="12.8" transform="rotate(180 240 106.4)" fill="#DBDBDB"/>
<rect x="173.6" y="146.4" width="13.6" height="12.8" transform="rotate(180 173.6 146.4)" fill="#DBDBDB"/>
<rect x="213.6" y="106.4" width="13.6" height="12.8" transform="rotate(180 213.6 106.4)" fill="#DBDBDB"/>
<rect x="186.4" y="133.6" width="12.8" height="13.6" transform="rotate(180 186.4 133.6)" fill="#DBDBDB"/>
<rect x="226.4" y="93.6" width="12.8" height="13.6" transform="rotate(180 226.4 93.6)" fill="#DBDBDB"/>
<rect x="80" y="160" width="13.6" height="13.6" fill="#DBDBDB"/>
<rect x="146.4" y="226.4" width="13.6" height="13.6" fill="#DBDBDB"/>
<rect x="93.5996" y="173.6" width="12.8" height="12.8" fill="#DBDBDB"/>
<rect x="133.6" y="213.6" width="12.8" height="12.8" fill="#DBDBDB"/>
<rect x="133.6" y="160" width="12.8" height="13.6" fill="#DBDBDB"/>
<rect x="80" y="213.6" width="13.6" height="12.8" fill="#DBDBDB"/>
<rect x="146.4" y="173.6" width="13.6" height="12.8" fill="#DBDBDB"/>
<rect x="93.5996" y="226.4" width="12.8" height="13.6" fill="#DBDBDB"/>
<rect x="159.996" y="320" width="13.6" height="40" transform="rotate(180 159.996 320)" fill="#DBDBDB"/>
<rect x="106.396" y="320" width="12.8" height="40" transform="rotate(180 106.396 320)" fill="#DBDBDB"/>
<rect x="133.596" y="320" width="14.4" height="40" transform="rotate(180 133.596 320)" fill="#DBDBDB"/>
<rect x="146.396" y="280" width="12.8" height="40" transform="rotate(180 146.396 280)" fill="#DBDBDB"/>
<rect x="93.5957" y="280" width="13.6" height="40" transform="rotate(180 93.5957 280)" fill="#DBDBDB"/>
<rect x="119.196" y="280" width="12.8" height="40" transform="rotate(180 119.196 280)" fill="#DBDBDB"/>
</svg>
