<svg width="400" height="160" viewBox="0 0 400 160" fill="none" xmlns="http://www.w3.org/2000/svg">
<rect x="373.6" y="160" width="27.2" height="13.6" transform="rotate(180 373.6 160)" fill="#DBDBDB"/>
<rect x="333.6" y="160" width="13.6" height="13.6" transform="rotate(180 333.6 160)" fill="#DBDBDB"/>
<rect x="400" y="160" width="13.6" height="13.6" transform="rotate(180 400 160)" fill="#DBDBDB"/>
<rect x="373.6" y="133.6" width="27.2" height="27.2" transform="rotate(180 373.6 133.6)" fill="#DBDBDB"/>
<rect x="333.6" y="133.6" width="13.6" height="27.2" transform="rotate(180 333.6 133.6)" fill="#DBDBDB"/>
<rect x="333.6" y="93.6001" width="13.6" height="13.6" transform="rotate(180 333.6 93.6001)" fill="#DBDBDB"/>
<rect x="373.6" y="93.6001" width="27.2" height="13.6" transform="rotate(180 373.6 93.6001)" fill="#DBDBDB"/>
<rect x="386.4" y="146.4" width="12.8" height="12.8" transform="rotate(180 386.4 146.4)" fill="#DBDBDB"/>
<rect x="346.4" y="146.4" width="12.8" height="12.8" transform="rotate(180 346.4 146.4)" fill="#DBDBDB"/>
<rect x="346.4" y="106.4" width="12.8" height="12.8" transform="rotate(180 346.4 106.4)" fill="#DBDBDB"/>
<rect x="386.4" y="106.4" width="12.8" height="12.8" transform="rotate(180 386.4 106.4)" fill="#DBDBDB"/>
<rect x="400" y="133.6" width="13.6" height="27.2" transform="rotate(180 400 133.6)" fill="#DBDBDB"/>
<rect x="400" y="93.6001" width="13.6" height="13.6" transform="rotate(180 400 93.6001)" fill="#DBDBDB"/>
<circle cx="50.3996" cy="149.6" r="3.2" transform="rotate(180 50.3996 149.6)" fill="#DBDBDB"/>
<circle cx="59.9992" cy="140" r="3.2" transform="rotate(180 59.9992 140)" fill="#DBDBDB"/>
<circle cx="69.6008" cy="130.4" r="3.2" transform="rotate(180 69.6008 130.4)" fill="#DBDBDB"/>
<circle cx="50.3996" cy="130.4" r="3.2" transform="rotate(180 50.3996 130.4)" fill="#DBDBDB"/>
<circle cx="69.6008" cy="149.6" r="3.2" transform="rotate(180 69.6008 149.6)" fill="#DBDBDB"/>
<circle cx="10.3996" cy="109.6" r="3.2" transform="rotate(180 10.3996 109.6)" fill="#DBDBDB"/>
<circle cx="29.6008" cy="109.6" r="3.2" transform="rotate(180 29.6008 109.6)" fill="#DBDBDB"/>
<circle cx="10.3996" cy="90.4001" r="3.2" transform="rotate(180 10.3996 90.4001)" fill="#DBDBDB"/>
<circle cx="19.9992" cy="100" r="3.2" transform="rotate(180 19.9992 100)" fill="#DBDBDB"/>
<circle cx="29.6008" cy="90.4001" r="3.2" transform="rotate(180 29.6008 90.4001)" fill="#DBDBDB"/>
<circle cx="290.4" cy="69.5998" r="3.2" transform="rotate(180 290.4 69.5998)" fill="#DBDBDB"/>
<circle cx="299.999" cy="60.0002" r="3.2" transform="rotate(180 299.999 60.0002)" fill="#DBDBDB"/>
<circle cx="309.601" cy="50.4001" r="3.2" transform="rotate(180 309.601 50.4001)" fill="#DBDBDB"/>
<circle cx="290.4" cy="50.4001" r="3.2" transform="rotate(180 290.4 50.4001)" fill="#DBDBDB"/>
<circle cx="309.601" cy="69.5998" r="3.2" transform="rotate(180 309.601 69.5998)" fill="#DBDBDB"/>
<circle cx="250.4" cy="29.5998" r="3.2" transform="rotate(180 250.4 29.5998)" fill="#DBDBDB"/>
<circle cx="269.601" cy="29.5998" r="3.2" transform="rotate(180 269.601 29.5998)" fill="#DBDBDB"/>
<circle cx="250.4" cy="10.4001" r="3.2" transform="rotate(180 250.4 10.4001)" fill="#DBDBDB"/>
<circle cx="259.999" cy="20.0002" r="3.2" transform="rotate(180 259.999 20.0002)" fill="#DBDBDB"/>
<circle cx="269.601" cy="10.4001" r="3.2" transform="rotate(180 269.601 10.4001)" fill="#DBDBDB"/>
<rect x="240" y="160" width="13.6" height="13.6" transform="rotate(180 240 160)" fill="#DBDBDB"/>
<rect x="173.6" y="93.6001" width="13.6" height="13.6" transform="rotate(180 173.6 93.6001)" fill="#DBDBDB"/>
<rect x="226.4" y="146.4" width="12.8" height="12.8" transform="rotate(180 226.4 146.4)" fill="#DBDBDB"/>
<rect x="186.4" y="106.4" width="12.8" height="12.8" transform="rotate(180 186.4 106.4)" fill="#DBDBDB"/>
<rect x="186.4" y="160" width="12.8" height="13.6" transform="rotate(180 186.4 160)" fill="#DBDBDB"/>
<rect x="240" y="106.4" width="13.6" height="12.8" transform="rotate(180 240 106.4)" fill="#DBDBDB"/>
<rect x="173.6" y="146.4" width="13.6" height="12.8" transform="rotate(180 173.6 146.4)" fill="#DBDBDB"/>
<rect x="226.4" y="93.6001" width="12.8" height="13.6" transform="rotate(180 226.4 93.6001)" fill="#DBDBDB"/>
<rect x="400" y="80" width="13.6" height="13.6" transform="rotate(180 400 80)" fill="#DBDBDB"/>
<rect x="333.6" y="13.6001" width="13.6" height="13.6" transform="rotate(180 333.6 13.6001)" fill="#DBDBDB"/>
<rect x="386.4" y="66.3999" width="12.8" height="12.8" transform="rotate(180 386.4 66.3999)" fill="#DBDBDB"/>
<rect x="346.4" y="26.3999" width="12.8" height="12.8" transform="rotate(180 346.4 26.3999)" fill="#DBDBDB"/>
<rect x="346.4" y="80" width="12.8" height="13.6" transform="rotate(180 346.4 80)" fill="#DBDBDB"/>
<rect x="400" y="26.3999" width="13.6" height="12.8" transform="rotate(180 400 26.3999)" fill="#DBDBDB"/>
<rect x="333.6" y="66.3999" width="13.6" height="12.8" transform="rotate(180 333.6 66.3999)" fill="#DBDBDB"/>
<rect x="386.4" y="13.6001" width="12.8" height="13.6" transform="rotate(180 386.4 13.6001)" fill="#DBDBDB"/>
<rect x="320" y="160" width="13.6" height="40" transform="rotate(180 320 160)" fill="#DBDBDB"/>
<rect x="266.4" y="160" width="12.8" height="40" transform="rotate(180 266.4 160)" fill="#DBDBDB"/>
<rect x="293.6" y="160" width="14.4" height="40" transform="rotate(180 293.6 160)" fill="#DBDBDB"/>
<rect x="306.4" y="120" width="12.8" height="40" transform="rotate(180 306.4 120)" fill="#DBDBDB"/>
<rect x="253.6" y="120" width="13.6" height="40" transform="rotate(180 253.6 120)" fill="#DBDBDB"/>
<rect x="279.199" y="120" width="12.8" height="40" transform="rotate(180 279.199 120)" fill="#DBDBDB"/>
</svg>
