<svg width="160" height="81" viewBox="0 0 160 81" fill="none" xmlns="http://www.w3.org/2000/svg">
<path d="M0 80.5557H13.6V40.5557H0V80.5557Z" fill="#F2AAE2"/>
<path d="M53.6 80.5557H66.4V40.5557H53.6V80.5557Z" fill="#F2AAE2"/>
<path d="M26.4 80.5557H40.8V40.5557H26.4V80.5557Z" fill="#F2AAE2"/>
<path d="M13.6 40.5557H26.4V0.555664H13.6V40.5557Z" fill="#F2AAE2"/>
<path d="M66.4 40.5557H80V0.555664H66.4V40.5557Z" fill="#F2AAE2"/>
<path d="M40.8 40.5557H53.6V0.555664H40.8V40.5557Z" fill="#F2AAE2"/>
<path d="M112.799 70.1557C112.799 68.3883 111.367 66.9557 109.599 66.9557C107.832 66.9557 106.399 68.3883 106.399 70.1557C106.399 71.923 107.832 73.3557 109.599 73.3557C111.367 73.3557 112.799 71.923 112.799 70.1557Z" fill="#F2AAE2"/>
<path d="M103.199 60.5557C103.199 58.7883 101.767 57.3557 99.9992 57.3557C98.2319 57.3557 96.7992 58.7883 96.7992 60.5557C96.7992 62.323 98.2319 63.7557 99.9992 63.7557C101.767 63.7557 103.199 62.323 103.199 60.5557Z" fill="#F2AAE2"/>
<path d="M93.5992 50.9557C93.5992 49.1883 92.1665 47.7557 90.3992 47.7557C88.6319 47.7557 87.1992 49.1883 87.1992 50.9557C87.1992 52.723 88.6319 54.1557 90.3992 54.1557C92.1665 54.1557 93.5992 52.723 93.5992 50.9557Z" fill="#F2AAE2"/>
<path d="M112.799 50.9557C112.799 49.1883 111.367 47.7557 109.599 47.7557C107.832 47.7557 106.399 49.1883 106.399 50.9557C106.399 52.723 107.832 54.1557 109.599 54.1557C111.367 54.1557 112.799 52.723 112.799 50.9557Z" fill="#F2AAE2"/>
<path d="M93.5992 70.1557C93.5992 68.3883 92.1665 66.9557 90.3992 66.9557C88.6319 66.9557 87.1992 68.3883 87.1992 70.1557C87.1992 71.923 88.6319 73.3557 90.3992 73.3557C92.1665 73.3557 93.5992 71.923 93.5992 70.1557Z" fill="#F2AAE2"/>
<path d="M152.799 30.1557C152.799 28.3883 151.367 26.9557 149.599 26.9557C147.832 26.9557 146.399 28.3883 146.399 30.1557C146.399 31.923 147.832 33.3557 149.599 33.3557C151.367 33.3557 152.799 31.923 152.799 30.1557Z" fill="#F2AAE2"/>
<path d="M133.599 30.1557C133.599 28.3883 132.167 26.9557 130.399 26.9557C128.632 26.9557 127.199 28.3883 127.199 30.1557C127.199 31.923 128.632 33.3557 130.399 33.3557C132.167 33.3557 133.599 31.923 133.599 30.1557Z" fill="#F2AAE2"/>
<path d="M152.799 10.9557C152.799 9.18835 151.367 7.75565 149.599 7.75565C147.832 7.75565 146.399 9.18835 146.399 10.9557C146.399 12.723 147.832 14.1557 149.599 14.1557C151.367 14.1557 152.799 12.723 152.799 10.9557Z" fill="#F2AAE2"/>
<path d="M143.199 20.5557C143.199 18.7883 141.767 17.3557 139.999 17.3557C138.232 17.3557 136.799 18.7883 136.799 20.5557C136.799 22.323 138.232 23.7557 139.999 23.7557C141.767 23.7557 143.199 22.323 143.199 20.5557Z" fill="#F2AAE2"/>
<path d="M133.599 10.9557C133.599 9.18835 132.167 7.75565 130.399 7.75565C128.632 7.75565 127.199 9.18835 127.199 10.9557C127.199 12.723 128.632 14.1557 130.399 14.1557C132.167 14.1557 133.599 12.723 133.599 10.9557Z" fill="#F2AAE2"/>
</svg>
