<svg width="180" height="240" viewBox="0 0 180 240" fill="none" xmlns="http://www.w3.org/2000/svg">
<rect width="59.9992" height="59.9992" transform="matrix(-1 0 0 1 179.996 0)" fill="#EAEAEB"/>
<circle cx="2.39997" cy="2.39997" r="2.39997" transform="matrix(-1 0 0 1 40.2002 5.39844)" fill="#EAEAEB"/>
<circle cx="2.39997" cy="2.39997" r="2.39997" transform="matrix(-1 0 0 1 47.4004 12.6016)" fill="#EAEAEB"/>
<circle cx="2.39997" cy="2.39997" r="2.39997" transform="matrix(-1 0 0 1 54.5996 19.8008)" fill="#EAEAEB"/>
<circle cx="2.39997" cy="2.39997" r="2.39997" transform="matrix(-1 0 0 1 40.2002 19.8008)" fill="#EAEAEB"/>
<circle cx="2.39997" cy="2.39997" r="2.39997" transform="matrix(-1 0 0 1 54.5996 5.39844)" fill="#EAEAEB"/>
<circle cx="2.39997" cy="2.39997" r="2.39997" transform="matrix(-1 0 0 1 10.2012 35.3984)" fill="#EAEAEB"/>
<circle cx="2.39997" cy="2.39997" r="2.39997" transform="matrix(-1 0 0 1 24.6006 35.3984)" fill="#EAEAEB"/>
<circle cx="2.39997" cy="2.39997" r="2.39997" transform="matrix(-1 0 0 1 10.2012 49.8008)" fill="#EAEAEB"/>
<circle cx="2.39997" cy="2.39997" r="2.39997" transform="matrix(-1 0 0 1 17.4004 42.5977)" fill="#EAEAEB"/>
<circle cx="2.39997" cy="2.39997" r="2.39997" transform="matrix(-1 0 0 1 24.6006 49.8008)" fill="#EAEAEB"/>
<circle cx="2.39997" cy="2.39997" r="2.39997" transform="matrix(-1 0 0 1 160.196 185.395)" fill="#EAEAEB"/>
<circle cx="2.39997" cy="2.39997" r="2.39997" transform="matrix(-1 0 0 1 167.396 192.598)" fill="#EAEAEB"/>
<circle cx="2.39997" cy="2.39997" r="2.39997" transform="matrix(-1 0 0 1 174.596 199.797)" fill="#EAEAEB"/>
<circle cx="2.39997" cy="2.39997" r="2.39997" transform="matrix(-1 0 0 1 160.196 199.797)" fill="#EAEAEB"/>
<circle cx="2.39997" cy="2.39997" r="2.39997" transform="matrix(-1 0 0 1 174.596 185.395)" fill="#EAEAEB"/>
<circle cx="2.39997" cy="2.39997" r="2.39997" transform="matrix(-1 0 0 1 130.197 215.395)" fill="#EAEAEB"/>
<circle cx="2.39997" cy="2.39997" r="2.39997" transform="matrix(-1 0 0 1 144.597 215.395)" fill="#EAEAEB"/>
<circle cx="2.39997" cy="2.39997" r="2.39997" transform="matrix(-1 0 0 1 130.197 229.797)" fill="#EAEAEB"/>
<circle cx="2.39997" cy="2.39997" r="2.39997" transform="matrix(-1 0 0 1 137.396 222.594)" fill="#EAEAEB"/>
<circle cx="2.39997" cy="2.39997" r="2.39997" transform="matrix(-1 0 0 1 144.597 229.797)" fill="#EAEAEB"/>
<path fill-rule="evenodd" clip-rule="evenodd" d="M160.199 79.793H179.999V100.193H160.199V79.793ZM170.1 94.7928C167.615 94.7928 165.6 92.7781 165.6 90.2928C165.6 87.8076 167.615 85.7929 170.1 85.7929C172.585 85.7929 174.6 87.8076 174.6 90.2928C174.6 92.7781 172.585 94.7928 170.1 94.7928Z" fill="#EAEAEB"/>
<path fill-rule="evenodd" clip-rule="evenodd" d="M120.001 79.793H139.801V100.193H120.001V79.793ZM129.901 94.7928C127.416 94.7928 125.401 92.7781 125.401 90.2928C125.401 87.8076 127.416 85.7929 129.901 85.7929C132.386 85.7929 134.401 87.8076 134.401 90.2928C134.401 92.7781 132.386 94.7928 129.901 94.7928Z" fill="#EAEAEB"/>
<path fill-rule="evenodd" clip-rule="evenodd" d="M139.8 100.195H160.2V119.995H139.8V100.195ZM149.701 114.595C147.216 114.595 145.201 112.58 145.201 110.095C145.201 107.61 147.216 105.595 149.701 105.595C152.186 105.595 154.201 107.61 154.201 110.095C154.201 112.58 152.186 114.595 149.701 114.595Z" fill="#EAEAEB"/>
<path fill-rule="evenodd" clip-rule="evenodd" d="M139.8 59.9961H160.199V79.7958H139.8V59.9961ZM149.7 74.3959C147.215 74.3959 145.2 72.3812 145.2 69.896C145.2 67.4107 147.215 65.396 149.7 65.396C152.185 65.396 154.2 67.4107 154.2 69.896C154.2 72.3812 152.185 74.3959 149.7 74.3959Z" fill="#EAEAEB"/>
<rect width="10.1999" height="10.1999" transform="matrix(-1 0 0 1 160.199 120)" fill="#EAEAEB"/>
<rect width="10.1999" height="10.1999" transform="matrix(-1 0 0 1 130.2 150)" fill="#EAEAEB"/>
<rect width="10.1999" height="10.1999" transform="matrix(-1 0 0 1 180 120)" fill="#EAEAEB"/>
<rect width="10.1999" height="10.1999" transform="matrix(-1 0 0 1 150 150)" fill="#EAEAEB"/>
<rect width="10.1999" height="10.1999" transform="matrix(-1 0 0 1 160.199 139.801)" fill="#EAEAEB"/>
<rect width="10.1999" height="10.1999" transform="matrix(-1 0 0 1 130.2 169.801)" fill="#EAEAEB"/>
<rect width="9.59986" height="9.59986" transform="matrix(-1 0 0 1 169.8 130.199)" fill="#EAEAEB"/>
<rect width="9.59986" height="9.59986" transform="matrix(-1 0 0 1 139.8 160.199)" fill="#EAEAEB"/>
<rect width="10.1999" height="10.1999" transform="matrix(-1 0 0 1 180 139.801)" fill="#EAEAEB"/>
<rect width="10.1999" height="10.1999" transform="matrix(-1 0 0 1 150 169.801)" fill="#EAEAEB"/>
<rect width="9.59986" height="10.1999" transform="matrix(-1 0 0 1 139.8 120)" fill="#EAEAEB"/>
<rect width="9.59986" height="10.1999" transform="matrix(-1 0 0 1 169.8 150)" fill="#EAEAEB"/>
<rect width="10.1999" height="9.59986" transform="matrix(-1 0 0 1 150 130.199)" fill="#EAEAEB"/>
<rect width="10.1999" height="9.59986" transform="matrix(-1 0 0 1 180 160.199)" fill="#EAEAEB"/>
<rect width="10.1999" height="9.59986" transform="matrix(-1 0 0 1 130.201 130.199)" fill="#EAEAEB"/>
<rect width="10.1999" height="9.59986" transform="matrix(-1 0 0 1 160.2 160.199)" fill="#EAEAEB"/>
<rect width="9.59986" height="10.1999" transform="matrix(-1 0 0 1 139.801 139.801)" fill="#EAEAEB"/>
<rect width="9.59986" height="10.1999" transform="matrix(-1 0 0 1 169.8 169.801)" fill="#EAEAEB"/>
<rect width="10.1999" height="10.1999" transform="matrix(1 0 0 -1 60.002 120)" fill="#EAEAEB"/>
<rect width="10.1999" height="10.1999" transform="matrix(1 0 0 -1 109.802 70.1992)" fill="#EAEAEB"/>
<rect width="9.59986" height="9.59986" transform="matrix(1 0 0 -1 70.2021 109.801)" fill="#EAEAEB"/>
<rect width="9.59986" height="9.59986" transform="matrix(1 0 0 -1 100.202 79.8008)" fill="#EAEAEB"/>
<rect width="9.59986" height="10.1999" transform="matrix(1 0 0 -1 100.202 120)" fill="#EAEAEB"/>
<rect width="10.1999" height="9.59986" transform="matrix(1 0 0 -1 60.002 79.8008)" fill="#EAEAEB"/>
<rect width="10.1999" height="9.59986" transform="matrix(1 0 0 -1 109.801 109.801)" fill="#EAEAEB"/>
<rect width="9.59986" height="10.1999" transform="matrix(1 0 0 -1 70.2021 70.1992)" fill="#EAEAEB"/>
<rect width="10.1999" height="29.9996" transform="matrix(-1 0 0 1 119.996 0)" fill="#EAEAEB"/>
<rect width="9.59986" height="29.9996" transform="matrix(-1 0 0 1 79.7969 0)" fill="#EAEAEB"/>
<rect width="10.7998" height="29.9996" transform="matrix(-1 0 0 1 100.196 0)" fill="#EAEAEB"/>
<rect width="9.59986" height="29.9996" transform="matrix(-1 0 0 1 109.796 30)" fill="#EAEAEB"/>
<rect width="10.1999" height="29.9996" transform="matrix(-1 0 0 1 70.1973 30)" fill="#EAEAEB"/>
<rect width="9.59986" height="29.9996" transform="matrix(-1 0 0 1 89.3965 30)" fill="#EAEAEB"/>
</svg>
