<svg width="400" height="160" viewBox="0 0 400 160" fill="none" xmlns="http://www.w3.org/2000/svg">
<rect x="373.602" y="160" width="27.2" height="13.6" transform="rotate(180 373.602 160)" fill="#636363"/>
<rect x="333.602" y="160" width="13.6" height="13.6" transform="rotate(180 333.602 160)" fill="#636363"/>
<rect x="400" y="160" width="13.6" height="13.6" transform="rotate(180 400 160)" fill="#636363"/>
<rect x="373.602" y="133.6" width="27.2" height="27.2" transform="rotate(180 373.602 133.6)" fill="#636363"/>
<rect x="333.602" y="133.6" width="13.6" height="27.2" transform="rotate(180 333.602 133.6)" fill="#636363"/>
<rect x="333.602" y="93.6001" width="13.6" height="13.6" transform="rotate(180 333.602 93.6001)" fill="#636363"/>
<rect x="373.602" y="93.6001" width="27.2" height="13.6" transform="rotate(180 373.602 93.6001)" fill="#636363"/>
<rect x="386.398" y="146.4" width="12.8" height="12.8" transform="rotate(180 386.398 146.4)" fill="#636363"/>
<rect x="346.398" y="146.4" width="12.8" height="12.8" transform="rotate(180 346.398 146.4)" fill="#636363"/>
<rect x="346.398" y="106.4" width="12.8" height="12.8" transform="rotate(180 346.398 106.4)" fill="#636363"/>
<rect x="386.398" y="106.4" width="12.8" height="12.8" transform="rotate(180 386.398 106.4)" fill="#636363"/>
<rect x="400" y="133.6" width="13.6" height="27.2" transform="rotate(180 400 133.6)" fill="#636363"/>
<rect x="400" y="93.6001" width="13.6" height="13.6" transform="rotate(180 400 93.6001)" fill="#636363"/>
<circle cx="50.4016" cy="149.6" r="3.2" transform="rotate(180 50.4016 149.6)" fill="#636363"/>
<circle cx="59.9992" cy="140" r="3.2" transform="rotate(180 59.9992 140)" fill="#636363"/>
<circle cx="69.6008" cy="130.4" r="3.2" transform="rotate(180 69.6008 130.4)" fill="#636363"/>
<circle cx="50.4016" cy="130.4" r="3.2" transform="rotate(180 50.4016 130.4)" fill="#636363"/>
<circle cx="69.6008" cy="149.6" r="3.2" transform="rotate(180 69.6008 149.6)" fill="#636363"/>
<circle cx="10.4016" cy="109.6" r="3.2" transform="rotate(180 10.4016 109.6)" fill="#636363"/>
<circle cx="29.6008" cy="109.6" r="3.2" transform="rotate(180 29.6008 109.6)" fill="#636363"/>
<circle cx="10.4016" cy="90.4001" r="3.2" transform="rotate(180 10.4016 90.4001)" fill="#636363"/>
<circle cx="19.9992" cy="100" r="3.2" transform="rotate(180 19.9992 100)" fill="#636363"/>
<circle cx="29.6008" cy="90.4001" r="3.2" transform="rotate(180 29.6008 90.4001)" fill="#636363"/>
<circle cx="290.402" cy="69.5998" r="3.2" transform="rotate(180 290.402 69.5998)" fill="#636363"/>
<circle cx="299.999" cy="60.0002" r="3.2" transform="rotate(180 299.999 60.0002)" fill="#636363"/>
<circle cx="309.601" cy="50.4001" r="3.2" transform="rotate(180 309.601 50.4001)" fill="#636363"/>
<circle cx="290.402" cy="50.4001" r="3.2" transform="rotate(180 290.402 50.4001)" fill="#636363"/>
<circle cx="309.601" cy="69.5998" r="3.2" transform="rotate(180 309.601 69.5998)" fill="#636363"/>
<circle cx="250.402" cy="29.5998" r="3.2" transform="rotate(180 250.402 29.5998)" fill="#636363"/>
<circle cx="269.601" cy="29.5998" r="3.2" transform="rotate(180 269.601 29.5998)" fill="#636363"/>
<circle cx="250.402" cy="10.4001" r="3.2" transform="rotate(180 250.402 10.4001)" fill="#636363"/>
<circle cx="259.999" cy="20.0002" r="3.2" transform="rotate(180 259.999 20.0002)" fill="#636363"/>
<circle cx="269.601" cy="10.4001" r="3.2" transform="rotate(180 269.601 10.4001)" fill="#636363"/>
<rect x="240" y="160" width="13.6" height="13.6" transform="rotate(180 240 160)" fill="#636363"/>
<rect x="173.602" y="93.6001" width="13.6" height="13.6" transform="rotate(180 173.602 93.6001)" fill="#636363"/>
<rect x="226.398" y="146.4" width="12.8" height="12.8" transform="rotate(180 226.398 146.4)" fill="#636363"/>
<rect x="186.398" y="106.4" width="12.8" height="12.8" transform="rotate(180 186.398 106.4)" fill="#636363"/>
<rect x="186.398" y="160" width="12.8" height="13.6" transform="rotate(180 186.398 160)" fill="#636363"/>
<rect x="240" y="106.4" width="13.6" height="12.8" transform="rotate(180 240 106.4)" fill="#636363"/>
<rect x="173.602" y="146.4" width="13.6" height="12.8" transform="rotate(180 173.602 146.4)" fill="#636363"/>
<rect x="226.398" y="93.6001" width="12.8" height="13.6" transform="rotate(180 226.398 93.6001)" fill="#636363"/>
<rect x="400" y="80" width="13.6" height="13.6" transform="rotate(180 400 80)" fill="#636363"/>
<rect x="333.602" y="13.6001" width="13.6" height="13.6" transform="rotate(180 333.602 13.6001)" fill="#636363"/>
<rect x="386.398" y="66.3999" width="12.8" height="12.8" transform="rotate(180 386.398 66.3999)" fill="#636363"/>
<rect x="346.398" y="26.3999" width="12.8" height="12.8" transform="rotate(180 346.398 26.3999)" fill="#636363"/>
<rect x="346.398" y="80" width="12.8" height="13.6" transform="rotate(180 346.398 80)" fill="#636363"/>
<rect x="400" y="26.3999" width="13.6" height="12.8" transform="rotate(180 400 26.3999)" fill="#636363"/>
<rect x="333.602" y="66.3999" width="13.6" height="12.8" transform="rotate(180 333.602 66.3999)" fill="#636363"/>
<rect x="386.398" y="13.6001" width="12.8" height="13.6" transform="rotate(180 386.398 13.6001)" fill="#636363"/>
<rect x="320" y="160" width="13.6" height="40" transform="rotate(180 320 160)" fill="#636363"/>
<rect x="266.398" y="160" width="12.8" height="40" transform="rotate(180 266.398 160)" fill="#636363"/>
<rect x="293.602" y="160" width="14.4" height="40" transform="rotate(180 293.602 160)" fill="#636363"/>
<rect x="306.398" y="120" width="12.8" height="40" transform="rotate(180 306.398 120)" fill="#636363"/>
<rect x="253.602" y="120" width="13.6" height="40" transform="rotate(180 253.602 120)" fill="#636363"/>
<rect x="279.199" y="120" width="12.8" height="40" transform="rotate(180 279.199 120)" fill="#636363"/>
</svg>
