<svg width="200" height="400" viewBox="0 0 200 400" fill="none" xmlns="http://www.w3.org/2000/svg">
<rect x="100" y="100" width="17" height="50" fill="#F2AAE2"/>
<rect x="167" y="100" width="16" height="50" fill="#F2AAE2"/>
<rect x="133" y="100" width="18" height="50" fill="#F2AAE2"/>
<rect x="117" y="150" width="16" height="50" fill="#F2AAE2"/>
<rect x="183" y="150" width="17" height="50" fill="#F2AAE2"/>
<rect x="151" y="150" width="16" height="50" fill="#F2AAE2"/>
<rect x="0.000488281" width="17" height="17" fill="#F2AAE2"/>
<rect x="83.0005" y="83" width="17" height="17" fill="#F2AAE2"/>
<rect x="17.0005" y="17" width="16" height="16" fill="#F2AAE2"/>
<rect x="67.0005" y="67" width="16" height="16" fill="#F2AAE2"/>
<rect x="67.0005" width="16" height="17" fill="#F2AAE2"/>
<rect x="0.000488281" y="67" width="17" height="16" fill="#F2AAE2"/>
<rect x="83.0005" y="17" width="17" height="16" fill="#F2AAE2"/>
<rect x="17.0005" y="83" width="16" height="17" fill="#F2AAE2"/>
<path fill-rule="evenodd" clip-rule="evenodd" d="M133 233H100V267H133V233ZM116.5 258C120.642 258 124 254.642 124 250.5C124 246.358 120.642 243 116.5 243C112.358 243 109 246.358 109 250.5C109 254.642 112.358 258 116.5 258Z" fill="#F2AAE2"/>
<path fill-rule="evenodd" clip-rule="evenodd" d="M200 233H167V267H200V233ZM183.5 258C187.643 258 191 254.643 191 250.5C191 246.358 187.643 243 183.5 243C179.358 243 176 246.358 176 250.5C176 254.643 179.358 258 183.5 258Z" fill="#F2AAE2"/>
<path fill-rule="evenodd" clip-rule="evenodd" d="M167 267H133V300H167V267ZM150.5 291C154.642 291 158 287.642 158 283.5C158 279.358 154.642 276 150.5 276C146.358 276 143 279.358 143 283.5C143 287.642 146.358 291 150.5 291Z" fill="#F2AAE2"/>
<path fill-rule="evenodd" clip-rule="evenodd" d="M167 200H133V233H167V200ZM150.5 224C154.642 224 158 220.642 158 216.5C158 212.358 154.642 209 150.5 209C146.358 209 143 212.358 143 216.5C143 220.642 146.358 224 150.5 224Z" fill="#F2AAE2"/>
<rect x="133" width="34" height="17" fill="#F2AAE2"/>
<rect x="183" width="17" height="17" fill="#F2AAE2"/>
<rect x="100" width="17" height="17" fill="#F2AAE2"/>
<rect x="133" y="33" width="34" height="34" fill="#F2AAE2"/>
<rect x="183" y="33" width="17" height="34" fill="#F2AAE2"/>
<rect x="183" y="83" width="17" height="17" fill="#F2AAE2"/>
<rect x="133" y="83" width="34" height="17" fill="#F2AAE2"/>
<rect x="117" y="17" width="16" height="16" fill="#F2AAE2"/>
<rect x="167" y="17" width="16" height="16" fill="#F2AAE2"/>
<rect x="167" y="67" width="16" height="16" fill="#F2AAE2"/>
<rect x="117" y="67" width="16" height="16" fill="#F2AAE2"/>
<rect x="100" y="33" width="17" height="34" fill="#F2AAE2"/>
<rect x="100" y="83" width="17" height="17" fill="#F2AAE2"/>
<circle cx="37" cy="213" r="4" fill="#F2AAE2"/>
<circle cx="25" cy="225" r="4" fill="#F2AAE2"/>
<circle cx="13" cy="237" r="4" fill="#F2AAE2"/>
<circle cx="37" cy="237" r="4" fill="#F2AAE2"/>
<circle cx="13" cy="213" r="4" fill="#F2AAE2"/>
<circle cx="87" cy="263" r="4" fill="#F2AAE2"/>
<circle cx="63" cy="263" r="4" fill="#F2AAE2"/>
<circle cx="87" cy="287" r="4" fill="#F2AAE2"/>
<circle cx="75" cy="275" r="4" fill="#F2AAE2"/>
<circle cx="63" cy="287" r="4" fill="#F2AAE2"/>
<rect x="100" y="300" width="17" height="17" fill="#F2AAE2"/>
<rect x="183" y="383" width="17" height="17" fill="#F2AAE2"/>
<rect x="117" y="317" width="16" height="16" fill="#F2AAE2"/>
<rect x="167" y="367" width="16" height="16" fill="#F2AAE2"/>
<rect x="167" y="300" width="16" height="17" fill="#F2AAE2"/>
<rect x="100" y="367" width="17" height="16" fill="#F2AAE2"/>
<rect x="183" y="317" width="17" height="16" fill="#F2AAE2"/>
<rect x="117" y="383" width="16" height="17" fill="#F2AAE2"/>
</svg>
