<svg width="160" height="241" viewBox="0 0 160 241" fill="none" xmlns="http://www.w3.org/2000/svg">
<rect width="13.6" height="40" transform="matrix(1 0 0 -1 80 160.556)" fill="#F2AAE2"/>
<rect width="12.8" height="40" transform="matrix(1 0 0 -1 133.6 160.556)" fill="#F2AAE2"/>
<rect width="14.4" height="40" transform="matrix(1 0 0 -1 106.4 160.556)" fill="#F2AAE2"/>
<rect width="12.8" height="40" transform="matrix(1 0 0 -1 93.5996 120.556)" fill="#F2AAE2"/>
<rect width="13.6" height="40" transform="matrix(1 0 0 -1 146.4 120.556)" fill="#F2AAE2"/>
<rect width="12.8" height="40" transform="matrix(1 0 0 -1 120.801 120.556)" fill="#F2AAE2"/>
<path fill-rule="evenodd" clip-rule="evenodd" d="M26.4 214.156H0V186.956H26.4V214.156ZM13.2 194.156C16.5137 194.156 19.2 196.842 19.2 200.156C19.2 203.469 16.5137 206.156 13.2 206.156C9.88629 206.156 7.2 203.469 7.2 200.156C7.2 196.842 9.88629 194.156 13.2 194.156Z" fill="#F2AAE2"/>
<path fill-rule="evenodd" clip-rule="evenodd" d="M80 214.156H53.6V186.956H80V214.156ZM66.8004 194.155C70.1141 194.155 72.8004 196.842 72.8004 200.155C72.8004 203.469 70.1141 206.155 66.8004 206.155C63.4866 206.155 60.8004 203.469 60.8004 200.155C60.8004 196.842 63.4866 194.155 66.8004 194.155Z" fill="#F2AAE2"/>
<path fill-rule="evenodd" clip-rule="evenodd" d="M53.6 186.956H26.4V160.556H53.6V186.956ZM40.4 167.756C43.7137 167.756 46.4 170.442 46.4 173.756C46.4 177.069 43.7137 179.756 40.4 179.756C37.0863 179.756 34.4 177.069 34.4 173.756C34.4 170.442 37.0863 167.756 40.4 167.756Z" fill="#F2AAE2"/>
<path fill-rule="evenodd" clip-rule="evenodd" d="M53.6 240.556H26.4V214.156H53.6V240.556ZM40.4 221.356C43.7137 221.356 46.4 224.042 46.4 227.356C46.4 230.669 43.7137 233.356 40.4 233.356C37.0863 233.356 34.4 230.669 34.4 227.356C34.4 224.042 37.0863 221.356 40.4 221.356Z" fill="#F2AAE2"/>
<path d="M80 80.5557H93.6V66.9557H80V80.5557Z" fill="#F2AAE2"/>
<path d="M146.4 14.1557H160V0.555664H146.4V14.1557Z" fill="#F2AAE2"/>
<path d="M93.6 66.9557H106.4V54.1557H93.6V66.9557Z" fill="#F2AAE2"/>
<path d="M133.6 26.9557H146.4V14.1557H133.6V26.9557Z" fill="#F2AAE2"/>
<path d="M133.6 80.5557H146.4V66.9557H133.6V80.5557Z" fill="#F2AAE2"/>
<path d="M80 26.9557H93.6V14.1557H80V26.9557Z" fill="#F2AAE2"/>
<path d="M146.4 66.9557H160V54.1557H146.4V66.9557Z" fill="#F2AAE2"/>
<path d="M93.6 14.1557H106.4V0.555664H93.6V14.1557Z" fill="#F2AAE2"/>
<path d="M106.4 240.556H133.6V226.956H106.4V240.556Z" fill="#F2AAE2"/>
<path d="M146.4 240.556H160V226.956H146.4V240.556Z" fill="#F2AAE2"/>
<path d="M80 240.556H93.6V226.956H80V240.556Z" fill="#F2AAE2"/>
<path d="M106.4 214.156H133.6V186.956H106.4V214.156Z" fill="#F2AAE2"/>
<path d="M146.4 214.156H160V186.956H146.4V214.156Z" fill="#F2AAE2"/>
<path d="M146.4 174.156H160V160.556H146.4V174.156Z" fill="#F2AAE2"/>
<path d="M106.4 174.156H133.6V160.556H106.4V174.156Z" fill="#F2AAE2"/>
<path d="M93.6 226.956H106.4V214.156H93.6V226.956Z" fill="#F2AAE2"/>
<path d="M133.6 226.956H146.4V214.156H133.6V226.956Z" fill="#F2AAE2"/>
<path d="M133.6 186.956H146.4V174.156H133.6V186.956Z" fill="#F2AAE2"/>
<path d="M93.6 186.956H106.4V174.156H93.6V186.956Z" fill="#F2AAE2"/>
<path d="M80 214.156H93.6V186.956H80V214.156Z" fill="#F2AAE2"/>
<path d="M80 174.156H93.6V160.556H80V174.156Z" fill="#F2AAE2"/>
</svg>
