<svg width="500" height="200" viewBox="0 0 500 200" fill="none" xmlns="http://www.w3.org/2000/svg">
<rect x="400" width="17" height="17" fill="#636363"/>
<rect x="483" y="83" width="17" height="17" fill="#636363"/>
<rect x="417" y="17" width="16" height="16" fill="#636363"/>
<rect x="467" y="67" width="16" height="16" fill="#636363"/>
<rect x="467" width="16" height="17" fill="#636363"/>
<rect x="400" y="67" width="17" height="16" fill="#636363"/>
<rect x="483" y="17" width="17" height="16" fill="#636363"/>
<rect x="417" y="83" width="16" height="17" fill="#636363"/>
<circle cx="337" cy="13" r="4" fill="#636363"/>
<circle cx="325" cy="25" r="4" fill="#636363"/>
<circle cx="313" cy="37" r="4" fill="#636363"/>
<circle cx="337" cy="37" r="4" fill="#636363"/>
<circle cx="313" cy="13" r="4" fill="#636363"/>
<circle cx="387" cy="63" r="4" fill="#636363"/>
<circle cx="363" cy="63" r="4" fill="#636363"/>
<circle cx="387" cy="87" r="4" fill="#636363"/>
<circle cx="375" cy="75" r="4" fill="#636363"/>
<circle cx="363" cy="87" r="4" fill="#636363"/>
<rect x="467" y="100" width="33" height="33" fill="#636363"/>
<rect x="400" y="100" width="33" height="33" fill="#636363"/>
<rect x="467" y="167" width="33" height="33" fill="#636363"/>
<rect x="433" y="133" width="34" height="34" fill="#636363"/>
<rect x="400" y="167" width="33" height="33" fill="#636363"/>
<rect x="200" y="100" width="17" height="17" fill="#636363"/>
<rect x="283" y="183" width="17" height="17" fill="#636363"/>
<rect x="217" y="117" width="16" height="16" fill="#636363"/>
<rect x="267" y="167" width="16" height="16" fill="#636363"/>
<rect x="267" y="100" width="16" height="17" fill="#636363"/>
<rect x="200" y="167" width="17" height="16" fill="#636363"/>
<rect x="283" y="117" width="17" height="16" fill="#636363"/>
<rect x="217" y="183" width="16" height="17" fill="#636363"/>
<rect x="333" y="100" width="34" height="17" fill="#636363"/>
<rect x="383" y="100" width="17" height="17" fill="#636363"/>
<rect x="300" y="100" width="17" height="17" fill="#636363"/>
<rect x="333" y="133" width="34" height="34" fill="#636363"/>
<rect x="383" y="133" width="17" height="34" fill="#636363"/>
<rect x="383" y="183" width="17" height="17" fill="#636363"/>
<rect x="333" y="183" width="34" height="17" fill="#636363"/>
<rect x="317" y="117" width="16" height="16" fill="#636363"/>
<rect x="367" y="117" width="16" height="16" fill="#636363"/>
<rect x="367" y="167" width="16" height="16" fill="#636363"/>
<rect x="317" y="167" width="16" height="16" fill="#636363"/>
<rect x="300" y="133" width="17" height="34" fill="#636363"/>
<rect x="300" y="183" width="17" height="17" fill="#636363"/>
<circle cx="37" cy="113" r="4" fill="#636363"/>
<circle cx="25" cy="125" r="4" fill="#636363"/>
<circle cx="13" cy="137" r="4" fill="#636363"/>
<circle cx="37" cy="137" r="4" fill="#636363"/>
<circle cx="13" cy="113" r="4" fill="#636363"/>
<circle cx="87" cy="163" r="4" fill="#636363"/>
<circle cx="63" cy="163" r="4" fill="#636363"/>
<circle cx="87" cy="187" r="4" fill="#636363"/>
<circle cx="75" cy="175" r="4" fill="#636363"/>
<circle cx="63" cy="187" r="4" fill="#636363"/>
</svg>
