<svg width="340" height="228" viewBox="0 0 340 228" fill="none" xmlns="http://www.w3.org/2000/svg">
<g clip-path="url(#clip0_2780_58199)">
<rect width="340" height="228" fill="#F5F5F5"/>
<g clip-path="url(#clip1_2780_58199)">
<rect x="342.703" y="228.26" width="19.0233" height="19.0233" transform="rotate(180 342.703 228.26)" fill="#F2AAE2"/>
<rect x="342.703" y="189.637" width="19.0233" height="19.0233" transform="rotate(180 342.703 189.637)" fill="#F2AAE2"/>
<rect x="131.718" y="55.3203" width="9.79987" height="9.79987" transform="rotate(180 131.718 55.3203)" fill="#F2AAE2"/>
<rect x="102.894" y="26.4961" width="9.79987" height="9.79987" transform="rotate(180 102.894 26.4961)" fill="#F2AAE2"/>
<rect x="150.741" y="55.3203" width="9.79987" height="9.79987" transform="rotate(180 150.741 55.3203)" fill="#F2AAE2"/>
<rect x="121.918" y="26.4961" width="9.79987" height="9.79987" transform="rotate(180 121.918 26.4961)" fill="#F2AAE2"/>
<rect x="131.718" y="36.2969" width="9.79987" height="9.79987" transform="rotate(180 131.718 36.2969)" fill="#F2AAE2"/>
<rect x="102.894" y="7.47363" width="9.79987" height="9.79987" transform="rotate(180 102.894 7.47363)" fill="#F2AAE2"/>
<rect x="140.94" y="45.5205" width="9.2234" height="9.2234" transform="rotate(180 140.94 45.5205)" fill="#F2AAE2"/>
<rect x="112.117" y="16.6973" width="9.2234" height="9.2234" transform="rotate(180 112.117 16.6973)" fill="#F2AAE2"/>
<rect x="150.742" y="36.2969" width="9.79987" height="9.79987" transform="rotate(180 150.742 36.2969)" fill="#F2AAE2"/>
<rect x="121.918" y="7.47363" width="9.79987" height="9.79987" transform="rotate(180 121.918 7.47363)" fill="#F2AAE2"/>
<rect x="112.117" y="55.3203" width="9.2234" height="9.79987" transform="rotate(180 112.117 55.3203)" fill="#F2AAE2"/>
<rect x="140.94" y="26.4961" width="9.2234" height="9.79987" transform="rotate(180 140.94 26.4961)" fill="#F2AAE2"/>
<rect x="121.918" y="45.5205" width="9.79987" height="9.2234" transform="rotate(180 121.918 45.5205)" fill="#F2AAE2"/>
<rect x="150.742" y="16.6973" width="9.79987" height="9.2234" transform="rotate(180 150.742 16.6973)" fill="#F2AAE2"/>
<rect x="102.894" y="45.5205" width="9.79987" height="9.2234" transform="rotate(180 102.894 45.5205)" fill="#F2AAE2"/>
<rect x="131.718" y="16.6973" width="9.79987" height="9.2234" transform="rotate(180 131.718 16.6973)" fill="#F2AAE2"/>
<rect x="112.117" y="36.2969" width="9.2234" height="9.79987" transform="rotate(180 112.117 36.2969)" fill="#F2AAE2"/>
<rect x="140.94" y="7.47363" width="9.2234" height="9.79987" transform="rotate(180 140.94 7.47363)" fill="#F2AAE2"/>
<circle cx="302.759" cy="47.4119" r="2.30586" transform="rotate(180 302.759 47.4119)" fill="#F2AAE2"/>
<circle cx="309.676" cy="40.4939" r="2.30586" transform="rotate(180 309.676 40.4939)" fill="#F2AAE2"/>
<circle cx="316.594" cy="33.577" r="2.30586" transform="rotate(180 316.594 33.577)" fill="#F2AAE2"/>
<circle cx="302.759" cy="33.577" r="2.30586" transform="rotate(180 302.759 33.577)" fill="#F2AAE2"/>
<circle cx="316.594" cy="47.4119" r="2.30586" transform="rotate(180 316.594 47.4119)" fill="#F2AAE2"/>
<circle cx="273.935" cy="18.5887" r="2.30586" transform="rotate(180 273.935 18.5887)" fill="#F2AAE2"/>
<circle cx="287.77" cy="18.5887" r="2.30586" transform="rotate(180 287.77 18.5887)" fill="#F2AAE2"/>
<circle cx="273.935" cy="4.75273" r="2.30586" transform="rotate(180 273.935 4.75273)" fill="#F2AAE2"/>
<circle cx="280.853" cy="11.6717" r="2.30586" transform="rotate(180 280.853 11.6717)" fill="#F2AAE2"/>
<circle cx="287.77" cy="4.75273" r="2.30586" transform="rotate(180 287.77 4.75273)" fill="#F2AAE2"/>
<rect x="74.0698" y="55.3203" width="9.79987" height="9.79987" transform="rotate(180 74.0698 55.3203)" fill="#F2AAE2"/>
<rect x="45.248" y="26.4961" width="9.79987" height="9.79987" transform="rotate(180 45.248 26.4961)" fill="#F2AAE2"/>
<rect x="93.0947" y="55.3203" width="9.79987" height="9.79987" transform="rotate(180 93.0947 55.3203)" fill="#F2AAE2"/>
<rect x="64.271" y="26.4961" width="9.79987" height="9.79987" transform="rotate(180 64.271 26.4961)" fill="#F2AAE2"/>
<rect x="74.0698" y="36.2969" width="9.79987" height="9.79987" transform="rotate(180 74.0698 36.2969)" fill="#F2AAE2"/>
<rect x="45.248" y="7.47363" width="9.79987" height="9.79987" transform="rotate(180 45.248 7.47363)" fill="#F2AAE2"/>
<rect x="83.2959" y="45.5205" width="9.2234" height="9.2234" transform="rotate(180 83.2959 45.5205)" fill="#F2AAE2"/>
<rect x="54.4727" y="16.6973" width="9.2234" height="9.2234" transform="rotate(180 54.4727 16.6973)" fill="#F2AAE2"/>
<rect x="93.0947" y="36.2969" width="9.79987" height="9.79987" transform="rotate(180 93.0947 36.2969)" fill="#F2AAE2"/>
<rect x="64.271" y="7.47461" width="9.79987" height="9.79987" transform="rotate(180 64.271 7.47461)" fill="#F2AAE2"/>
<rect x="54.4727" y="55.3203" width="9.2234" height="9.79987" transform="rotate(180 54.4727 55.3203)" fill="#F2AAE2"/>
<rect x="83.2959" y="26.4961" width="9.2234" height="9.79987" transform="rotate(180 83.2959 26.4961)" fill="#F2AAE2"/>
<rect x="64.271" y="45.5205" width="9.79987" height="9.2234" transform="rotate(180 64.271 45.5205)" fill="#F2AAE2"/>
<rect x="93.0947" y="16.6973" width="9.79987" height="9.2234" transform="rotate(180 93.0947 16.6973)" fill="#F2AAE2"/>
<rect x="45.248" y="45.5205" width="9.79987" height="9.2234" transform="rotate(180 45.248 45.5205)" fill="#F2AAE2"/>
<rect x="74.0698" y="16.6973" width="9.79987" height="9.2234" transform="rotate(180 74.0698 16.6973)" fill="#F2AAE2"/>
<rect x="54.4727" y="36.2969" width="9.2234" height="9.79987" transform="rotate(180 54.4727 36.2969)" fill="#F2AAE2"/>
<rect x="83.2959" y="7.47363" width="9.2234" height="9.79987" transform="rotate(180 83.2959 7.47363)" fill="#F2AAE2"/>
<rect x="304.656" y="228.26" width="19.5997" height="19.0233" transform="rotate(180 304.656 228.26)" fill="#F2AAE2"/>
<rect x="323.68" y="209.237" width="19.0233" height="19.5997" transform="rotate(180 323.68 209.237)" fill="#F2AAE2"/>
<rect x="285.059" y="209.237" width="19.0233" height="19.5997" transform="rotate(180 285.059 209.237)" fill="#F2AAE2"/>
<rect x="304.656" y="189.637" width="19.5997" height="19.0233" transform="rotate(180 304.656 189.637)" fill="#F2AAE2"/>
<rect x="227.412" y="228.26" width="19.0233" height="19.0233" transform="rotate(180 227.412 228.26)" fill="#F2AAE2"/>
<rect x="266.034" y="228.26" width="19.0233" height="19.0233" transform="rotate(180 266.034 228.26)" fill="#F2AAE2"/>
<rect x="227.412" y="189.637" width="19.0233" height="19.0233" transform="rotate(180 227.412 189.637)" fill="#F2AAE2"/>
<rect x="247.011" y="209.237" width="19.5997" height="19.5997" transform="rotate(180 247.011 209.237)" fill="#F2AAE2"/>
<rect x="266.034" y="189.637" width="19.0233" height="19.0233" transform="rotate(180 266.034 189.637)" fill="#F2AAE2"/>
<rect width="57.6463" height="57.6463" transform="matrix(-1 0 0 -1 266.034 170.614)" fill="#F2AAE2"/>
<path fill-rule="evenodd" clip-rule="evenodd" d="M150.742 228.26H169.765V209.236H150.742V228.26ZM160.254 214.552C157.936 214.552 156.057 216.431 156.057 218.748C156.057 221.066 157.936 222.944 160.254 222.944C162.571 222.944 164.45 221.066 164.45 218.748C164.45 216.431 162.571 214.552 160.254 214.552Z" fill="#F2AAE2"/>
<path fill-rule="evenodd" clip-rule="evenodd" d="M189.364 228.26H208.387V209.236H189.364V228.26ZM198.876 214.552C196.558 214.552 194.679 216.431 194.679 218.748C194.679 221.066 196.558 222.944 198.876 222.944C201.193 222.944 203.072 221.066 203.072 218.748C203.072 216.431 201.193 214.552 198.876 214.552Z" fill="#F2AAE2"/>
<path fill-rule="evenodd" clip-rule="evenodd" d="M150.742 189.637H169.765V170.613H150.742V189.637ZM160.254 175.929C157.936 175.929 156.057 177.808 156.057 180.125C156.057 182.443 157.936 184.321 160.254 184.321C162.571 184.321 164.45 182.443 164.45 180.125C164.45 177.808 162.571 175.929 160.254 175.929Z" fill="#F2AAE2"/>
<path fill-rule="evenodd" clip-rule="evenodd" d="M169.765 209.237H189.365V189.638H169.765V209.237ZM179.565 195.114C177.177 195.114 175.241 197.05 175.241 199.437C175.241 201.825 177.177 203.761 179.565 203.761C181.953 203.761 183.888 201.825 183.888 199.437C183.888 197.05 181.953 195.114 179.565 195.114Z" fill="#F2AAE2"/>
<path fill-rule="evenodd" clip-rule="evenodd" d="M189.363 189.637H208.387V170.613H189.363V189.637ZM198.875 175.929C196.558 175.929 194.679 177.808 194.679 180.125C194.679 182.443 196.558 184.321 198.875 184.321C201.193 184.321 203.071 182.443 203.071 180.125C203.071 177.808 201.193 175.929 198.875 175.929Z" fill="#F2AAE2"/>
<rect x="93.0947" y="228.258" width="9.79987" height="28.8231" transform="rotate(180 93.0947 228.258)" fill="#F2AAE2"/>
<rect x="54.4727" y="228.258" width="9.2234" height="28.8231" transform="rotate(180 54.4727 228.258)" fill="#F2AAE2"/>
<rect x="74.0698" y="228.258" width="10.3763" height="28.8231" transform="rotate(180 74.0698 228.258)" fill="#F2AAE2"/>
<rect x="83.2959" y="199.434" width="9.2234" height="28.8231" transform="rotate(180 83.2959 199.434)" fill="#F2AAE2"/>
<rect x="45.248" y="199.434" width="9.79987" height="28.8231" transform="rotate(180 45.248 199.434)" fill="#F2AAE2"/>
<rect x="63.6953" y="199.434" width="9.2234" height="28.8231" transform="rotate(180 63.6953 199.434)" fill="#F2AAE2"/>
<rect x="35.4478" y="55.3203" width="9.79987" height="28.8231" transform="rotate(180 35.4478 55.3203)" fill="#F2AAE2"/>
<rect x="16.4238" y="55.3203" width="10.3763" height="28.8231" transform="rotate(180 16.4238 55.3203)" fill="#F2AAE2"/>
<rect x="25.6484" y="26.4961" width="9.2234" height="28.8231" transform="rotate(180 25.6484 26.4961)" fill="#F2AAE2"/>
<rect x="6.04785" y="26.4961" width="9.2234" height="28.8231" transform="rotate(180 6.04785 26.4961)" fill="#F2AAE2"/>
<rect x="342.703" y="151.59" width="19.0233" height="19.5997" transform="rotate(180 342.703 151.59)" fill="#F2AAE2"/>
<rect x="342.703" y="112.966" width="19.0233" height="19.0233" transform="rotate(180 342.703 112.966)" fill="#F2AAE2"/>
<rect x="342.703" y="74.3438" width="19.0233" height="19.0233" transform="rotate(180 342.703 74.3438)" fill="#F2AAE2"/>
<rect x="304.656" y="170.614" width="19.5997" height="19.0233" transform="rotate(180 304.656 170.614)" fill="#F2AAE2"/>
<rect x="323.68" y="151.59" width="19.0233" height="19.5997" transform="rotate(180 323.68 151.59)" fill="#F2AAE2"/>
<rect x="285.059" y="151.59" width="19.0233" height="19.5997" transform="rotate(180 285.059 151.59)" fill="#F2AAE2"/>
<rect x="304.656" y="131.99" width="19.5997" height="19.0233" transform="rotate(180 304.656 131.99)" fill="#F2AAE2"/>
<path d="M304.656 74.3438H323.68V93.9434H304.656V74.3438ZM314.167 88.1787C316.555 88.1787 318.49 86.2433 318.49 83.8555C318.49 81.4678 316.555 79.5322 314.167 79.5322C311.779 79.5323 309.844 81.4678 309.844 83.8555C309.844 86.2432 311.779 88.1786 314.167 88.1787Z" fill="#F2AAE2"/>
<path d="M266.035 74.3438H285.058V93.9434H266.035V74.3438ZM275.545 88.1787C277.933 88.1787 279.87 86.2433 279.87 83.8555C279.869 81.4678 277.933 79.5322 275.545 79.5322C273.158 79.5325 271.222 81.4679 271.222 83.8555C271.222 86.2431 273.158 88.1785 275.545 88.1787Z" fill="#F2AAE2"/>
<path d="M285.056 55.3203H304.655V74.3438H285.056V55.3203ZM294.566 69.1543C296.954 69.1543 298.891 67.2188 298.891 64.8311C298.891 62.4433 296.954 60.5078 294.566 60.5078C292.179 60.508 290.243 62.4434 290.243 64.8311C290.243 67.2187 292.179 69.1541 294.566 69.1543Z" fill="#F2AAE2"/>
<path d="M285.056 93.9414H304.655V112.965H285.056V93.9414ZM294.566 107.776C296.954 107.776 298.891 105.841 298.891 103.453C298.891 101.065 296.954 99.1299 294.566 99.1299C292.179 99.1301 290.243 101.065 290.243 103.453C290.243 105.841 292.179 107.776 294.566 107.776Z" fill="#F2AAE2"/>
<path d="M189.363 131.99H208.387V151.59H189.363V131.99ZM198.874 145.825C201.262 145.825 203.198 143.89 203.198 141.502C203.198 139.114 201.262 137.179 198.874 137.179C196.486 137.179 194.551 139.114 194.551 141.502C194.551 143.89 196.486 145.825 198.874 145.825Z" fill="#F2AAE2"/>
<path d="M150.742 131.99H169.765V151.59H150.742V131.99ZM160.253 145.825C162.641 145.825 164.577 143.89 164.577 141.502C164.577 139.114 162.641 137.179 160.253 137.179C157.866 137.179 155.929 139.114 155.929 141.502C155.929 143.89 157.866 145.825 160.253 145.825Z" fill="#F2AAE2"/>
<path d="M169.765 112.967H189.365V131.99H169.765V112.967ZM179.277 126.802C181.664 126.802 183.6 124.866 183.6 122.479C183.6 120.091 181.664 118.156 179.277 118.155C176.889 118.155 174.953 120.091 174.953 122.479C174.953 124.866 176.889 126.802 179.277 126.802Z" fill="#F2AAE2"/>
<path d="M169.765 151.591H189.365V170.614H169.765V151.591ZM179.277 165.426C181.664 165.426 183.6 163.49 183.6 161.103C183.6 158.715 181.664 156.78 179.277 156.779C176.889 156.779 174.953 158.715 174.953 161.103C174.953 163.49 176.889 165.426 179.277 165.426Z" fill="#F2AAE2"/>
<path d="M131.718 131.99H150.742V151.59H131.718V131.99ZM141.23 145.825C143.618 145.825 145.553 143.89 145.553 141.502C145.553 139.114 143.618 137.179 141.23 137.179C138.842 137.179 136.907 139.114 136.907 141.502C136.907 143.89 138.842 145.825 141.23 145.825Z" fill="#F2AAE2"/>
<path d="M93.0933 131.99H112.117V151.59H93.0933V131.99ZM102.604 145.825C104.992 145.825 106.927 143.89 106.927 141.502C106.927 139.114 104.992 137.179 102.604 137.179C100.216 137.179 98.2808 139.114 98.2808 141.502C98.2808 143.89 100.216 145.825 102.604 145.825Z" fill="#F2AAE2"/>
<path d="M112.118 112.967H131.718V131.99H112.118V112.967ZM121.629 126.802C124.017 126.802 125.953 124.866 125.953 122.479C125.953 120.091 124.017 118.155 121.629 118.155C119.241 118.155 117.306 120.091 117.306 122.479C117.306 124.866 119.241 126.802 121.629 126.802Z" fill="#F2AAE2"/>
<path d="M112.118 151.591H131.718V170.614H112.118V151.591ZM121.629 165.426C124.017 165.426 125.953 163.49 125.953 161.103C125.953 158.715 124.017 156.779 121.629 156.779C119.241 156.78 117.306 158.715 117.306 161.103C117.306 163.49 119.241 165.426 121.629 165.426Z" fill="#F2AAE2"/>
<circle cx="72.1712" cy="163.252" r="2.30586" transform="rotate(180 72.1712 163.252)" fill="#F2AAE2"/>
<circle cx="79.0892" cy="156.334" r="2.30586" transform="rotate(180 79.0892 156.334)" fill="#F2AAE2"/>
<circle cx="86.0071" cy="149.417" r="2.30586" transform="rotate(180 86.0071 149.417)" fill="#F2AAE2"/>
<circle cx="72.1712" cy="149.417" r="2.30586" transform="rotate(180 72.1712 149.417)" fill="#F2AAE2"/>
<circle cx="86.0071" cy="163.252" r="2.30586" transform="rotate(180 86.0071 163.252)" fill="#F2AAE2"/>
<circle cx="43.3479" cy="134.429" r="2.30586" transform="rotate(180 43.3479 134.429)" fill="#F2AAE2"/>
<circle cx="57.1834" cy="134.429" r="2.30586" transform="rotate(180 57.1834 134.429)" fill="#F2AAE2"/>
<circle cx="43.3479" cy="120.593" r="2.30586" transform="rotate(180 43.3479 120.593)" fill="#F2AAE2"/>
<circle cx="50.2659" cy="127.511" r="2.30586" transform="rotate(180 50.2659 127.511)" fill="#F2AAE2"/>
<circle cx="57.1834" cy="120.593" r="2.30586" transform="rotate(180 57.1834 120.593)" fill="#F2AAE2"/>
<circle cx="14.2527" cy="221.171" r="2.30586" transform="rotate(180 14.2527 221.171)" fill="#F2AAE2"/>
<circle cx="21.1702" cy="214.254" r="2.30586" transform="rotate(180 21.1702 214.254)" fill="#F2AAE2"/>
<circle cx="28.0882" cy="207.336" r="2.30586" transform="rotate(180 28.0882 207.336)" fill="#F2AAE2"/>
<circle cx="14.2527" cy="207.336" r="2.30586" transform="rotate(180 14.2527 207.336)" fill="#F2AAE2"/>
<circle cx="28.0882" cy="221.171" r="2.30586" transform="rotate(180 28.0882 221.171)" fill="#F2AAE2"/>
<circle cx="-0.735061" cy="192.348" r="2.30586" transform="rotate(180 -0.735061 192.348)" fill="#F2AAE2"/>
<circle cx="-0.735061" cy="178.512" r="2.30586" transform="rotate(180 -0.735061 178.512)" fill="#F2AAE2"/>
<rect width="57.6463" height="57.6463" transform="matrix(-1 0 0 -1 381.325 112.967)" fill="#F2AAE2"/>
<path d="M304.657 74.3438H323.68V93.9434H304.657V74.3438ZM314.167 88.1787C316.555 88.1786 318.491 86.2432 318.491 83.8555C318.491 81.4678 316.555 79.5323 314.167 79.5322C311.78 79.5322 309.844 81.4678 309.844 83.8555C309.844 86.2433 311.78 88.1787 314.167 88.1787Z" fill="#F2AAE2"/>
<path d="M266.035 74.3438H285.059V93.9434H266.035V74.3438ZM275.546 88.1787C277.934 88.1787 279.87 86.2433 279.87 83.8555C279.87 81.4678 277.934 79.5322 275.546 79.5322C273.158 79.5325 271.223 81.4679 271.223 83.8555C271.223 86.2431 273.158 88.1785 275.546 88.1787Z" fill="#F2AAE2"/>
<path d="M285.056 55.3203H304.656V74.3438H285.056V55.3203ZM294.567 69.1543C296.955 69.1543 298.891 67.2188 298.891 64.8311C298.891 62.4433 296.955 60.5078 294.567 60.5078C292.179 60.508 290.244 62.4434 290.244 64.8311C290.244 67.2187 292.179 69.1541 294.567 69.1543Z" fill="#F2AAE2"/>
<path d="M285.056 93.9414H304.656V112.965H285.056V93.9414ZM294.567 107.776C296.955 107.776 298.891 105.841 298.891 103.453C298.891 101.065 296.955 99.1299 294.567 99.1299C292.179 99.1301 290.244 101.065 290.244 103.453C290.244 105.841 292.179 107.776 294.567 107.776Z" fill="#F2AAE2"/>
<path d="M247.011 74.3438H266.034V93.9434H247.011V74.3438ZM256.522 88.1787C258.91 88.1787 260.846 86.2432 260.846 83.8555C260.846 81.4678 258.91 79.5322 256.522 79.5322C254.135 79.5322 252.199 81.4678 252.199 83.8555C252.199 86.2433 254.135 88.1787 256.522 88.1787Z" fill="#F2AAE2"/>
<path d="M208.389 74.3438H227.412V93.9434H208.389V74.3438ZM217.899 88.1787C220.287 88.1787 222.223 86.2433 222.223 83.8555C222.223 81.4678 220.287 79.5322 217.899 79.5322C215.512 79.5322 213.576 81.4678 213.576 83.8555C213.576 86.2432 215.512 88.1787 217.899 88.1787Z" fill="#F2AAE2"/>
<path d="M227.411 55.3203H247.011V74.3438H227.411V55.3203ZM236.922 69.1543C239.31 69.1543 241.245 67.2188 241.245 64.8311C241.245 62.4433 239.31 60.5078 236.922 60.5078C234.534 60.5079 232.599 62.4434 232.599 64.8311C232.599 67.2188 234.534 69.1542 236.922 69.1543Z" fill="#F2AAE2"/>
<path d="M227.411 93.9414H247.011V112.965H227.411V93.9414ZM236.922 107.776C239.31 107.776 241.245 105.841 241.245 103.453C241.245 101.065 239.31 99.1299 236.922 99.1299C234.534 99.13 232.599 101.065 232.599 103.453C232.599 105.841 234.534 107.776 236.922 107.776Z" fill="#F2AAE2"/>
<rect x="198.587" y="112.966" width="9.2234" height="9.79987" transform="rotate(180 198.587 112.966)" fill="#F2AAE2"/>
<rect x="169.765" y="112.966" width="9.2234" height="9.79987" transform="rotate(180 169.765 112.966)" fill="#F2AAE2"/>
<rect x="198.587" y="93.9434" width="9.2234" height="19.5997" transform="rotate(180 198.587 93.9434)" fill="#F2AAE2"/>
<rect x="208.387" y="103.167" width="9.79987" height="9.2234" transform="rotate(180 208.387 103.167)" fill="#F2AAE2"/>
<rect x="208.387" y="74.3438" width="9.79987" height="9.2234" transform="rotate(180 208.387 74.3438)" fill="#F2AAE2"/>
<rect x="189.365" y="103.167" width="19.5997" height="9.2234" transform="rotate(180 189.365 103.167)" fill="#F2AAE2"/>
<rect x="160.542" y="103.167" width="9.79987" height="9.2234" transform="rotate(180 160.542 103.167)" fill="#F2AAE2"/>
<rect x="160.542" y="74.3438" width="9.79987" height="9.2234" transform="rotate(180 160.542 74.3438)" fill="#F2AAE2"/>
<rect x="189.365" y="74.3438" width="19.5997" height="9.2234" transform="rotate(180 189.365 74.3438)" fill="#F2AAE2"/>
<rect x="169.765" y="93.9434" width="9.2234" height="19.5997" transform="rotate(180 169.765 93.9434)" fill="#F2AAE2"/>
<rect x="169.765" y="65.1191" width="9.2234" height="9.79987" transform="rotate(180 169.765 65.1191)" fill="#F2AAE2"/>
<rect x="198.587" y="65.1191" width="9.2234" height="9.79987" transform="rotate(180 198.587 65.1191)" fill="#F2AAE2"/>
<rect x="131.718" y="112.966" width="19.5997" height="9.79987" transform="rotate(180 131.718 112.966)" fill="#F2AAE2"/>
<rect x="102.894" y="112.966" width="9.79987" height="9.79987" transform="rotate(180 102.894 112.966)" fill="#F2AAE2"/>
<rect x="150.741" y="112.966" width="9.79987" height="9.79987" transform="rotate(180 150.741 112.966)" fill="#F2AAE2"/>
<rect x="131.718" y="93.9434" width="19.5997" height="19.5997" transform="rotate(180 131.718 93.9434)" fill="#F2AAE2"/>
<rect x="102.894" y="93.9434" width="9.79987" height="19.5997" transform="rotate(180 102.894 93.9434)" fill="#F2AAE2"/>
<rect x="102.894" y="65.1191" width="9.79987" height="9.79987" transform="rotate(180 102.894 65.1191)" fill="#F2AAE2"/>
<rect x="131.718" y="65.1191" width="19.5997" height="9.79987" transform="rotate(180 131.718 65.1191)" fill="#F2AAE2"/>
<rect x="140.94" y="103.167" width="9.2234" height="9.2234" transform="rotate(180 140.94 103.167)" fill="#F2AAE2"/>
<rect x="112.117" y="103.167" width="9.2234" height="9.2234" transform="rotate(180 112.117 103.167)" fill="#F2AAE2"/>
<rect x="112.117" y="74.3438" width="9.2234" height="9.2234" transform="rotate(180 112.117 74.3438)" fill="#F2AAE2"/>
<rect x="140.94" y="74.3438" width="9.2234" height="9.2234" transform="rotate(180 140.94 74.3438)" fill="#F2AAE2"/>
<rect x="150.742" y="93.9434" width="9.79987" height="19.5997" transform="rotate(180 150.742 93.9434)" fill="#F2AAE2"/>
<rect x="150.742" y="65.1191" width="9.79987" height="9.79987" transform="rotate(180 150.742 65.1191)" fill="#F2AAE2"/>
<rect x="74.0698" y="112.966" width="19.5997" height="9.79987" transform="rotate(180 74.0698 112.966)" fill="#F2AAE2"/>
<rect x="45.248" y="112.966" width="9.79987" height="9.79987" transform="rotate(180 45.248 112.966)" fill="#F2AAE2"/>
<rect x="93.0947" y="112.966" width="9.79987" height="9.79987" transform="rotate(180 93.0947 112.966)" fill="#F2AAE2"/>
<rect x="74.0698" y="93.9434" width="19.5997" height="19.5997" transform="rotate(180 74.0698 93.9434)" fill="#F2AAE2"/>
<rect x="45.248" y="93.9434" width="9.79987" height="19.5997" transform="rotate(180 45.248 93.9434)" fill="#F2AAE2"/>
<rect x="45.248" y="65.1191" width="9.79987" height="9.79987" transform="rotate(180 45.248 65.1191)" fill="#F2AAE2"/>
<rect x="74.0698" y="65.1191" width="19.5997" height="9.79987" transform="rotate(180 74.0698 65.1191)" fill="#F2AAE2"/>
<rect x="83.2959" y="103.167" width="9.2234" height="9.2234" transform="rotate(180 83.2959 103.167)" fill="#F2AAE2"/>
<rect x="54.4727" y="103.167" width="9.2234" height="9.2234" transform="rotate(180 54.4727 103.167)" fill="#F2AAE2"/>
<rect x="54.4727" y="74.3438" width="9.2234" height="9.2234" transform="rotate(180 54.4727 74.3438)" fill="#F2AAE2"/>
<rect x="83.2959" y="74.3438" width="9.2234" height="9.2234" transform="rotate(180 83.2959 74.3438)" fill="#F2AAE2"/>
<rect x="93.0947" y="93.9434" width="9.79987" height="19.5997" transform="rotate(180 93.0947 93.9434)" fill="#F2AAE2"/>
<rect x="93.0947" y="65.1191" width="9.79987" height="9.79987" transform="rotate(180 93.0947 65.1191)" fill="#F2AAE2"/>
<path d="M323.68 16.6973H342.703V36.2969H323.68V16.6973ZM333.191 30.5312C335.579 30.531 337.515 28.5957 337.515 26.208C337.515 23.8204 335.579 21.885 333.191 21.8848C330.804 21.8848 328.867 23.8203 328.867 26.208C328.867 28.5958 330.804 30.5312 333.191 30.5312Z" fill="#F2AAE2"/>
<rect x="16.4238" y="112.966" width="9.79987" height="9.79987" transform="rotate(180 16.4238 112.966)" fill="#F2AAE2"/>
<rect x="35.4478" y="112.966" width="9.79987" height="9.79987" transform="rotate(180 35.4478 112.966)" fill="#F2AAE2"/>
<rect x="6.62402" y="84.1436" width="9.79987" height="9.79987" transform="rotate(180 6.62402 84.1436)" fill="#F2AAE2"/>
<rect x="16.4238" y="93.9434" width="9.79987" height="9.79987" transform="rotate(180 16.4238 93.9434)" fill="#F2AAE2"/>
<rect x="25.6484" y="103.167" width="9.2234" height="9.2234" transform="rotate(180 25.6484 103.167)" fill="#F2AAE2"/>
<rect x="35.4478" y="93.9434" width="9.79987" height="9.79987" transform="rotate(180 35.4478 93.9434)" fill="#F2AAE2"/>
<rect x="6.62402" y="65.1191" width="9.79987" height="9.79987" transform="rotate(180 6.62402 65.1191)" fill="#F2AAE2"/>
<rect x="25.6484" y="84.1426" width="9.2234" height="9.79987" transform="rotate(180 25.6484 84.1426)" fill="#F2AAE2"/>
<rect x="6.62402" y="103.166" width="9.79987" height="9.2234" transform="rotate(180 6.62402 103.166)" fill="#F2AAE2"/>
<rect x="35.4478" y="74.3438" width="9.79987" height="9.2234" transform="rotate(180 35.4478 74.3438)" fill="#F2AAE2"/>
<rect x="16.4238" y="74.3438" width="9.79987" height="9.2234" transform="rotate(180 16.4238 74.3438)" fill="#F2AAE2"/>
<rect x="25.6484" y="65.1191" width="9.2234" height="9.79987" transform="rotate(180 25.6484 65.1191)" fill="#F2AAE2"/>
<rect x="35.4482" y="170.613" width="9.79987" height="9.79987" transform="rotate(180 35.4482 170.613)" fill="#F2AAE2"/>
<rect x="25.6484" y="160.812" width="9.2234" height="9.2234" transform="rotate(180 25.6484 160.812)" fill="#F2AAE2"/>
<rect x="35.4478" y="131.99" width="9.79987" height="9.2234" transform="rotate(180 35.4478 131.99)" fill="#F2AAE2"/>
<rect x="25.6484" y="122.767" width="9.2234" height="9.79987" transform="rotate(180 25.6484 122.767)" fill="#F2AAE2"/>
<rect x="208.387" y="55.3203" width="9.79987" height="9.79987" transform="rotate(180 208.387 55.3203)" fill="#F2AAE2"/>
<rect x="160.542" y="7.47363" width="9.79987" height="9.79987" transform="rotate(180 160.542 7.47363)" fill="#F2AAE2"/>
<rect x="198.587" y="45.5205" width="9.2234" height="9.2234" transform="rotate(180 198.587 45.5205)" fill="#F2AAE2"/>
<rect x="169.765" y="16.6973" width="9.2234" height="9.2234" transform="rotate(180 169.765 16.6973)" fill="#F2AAE2"/>
<rect x="169.765" y="55.3203" width="9.2234" height="9.79987" transform="rotate(180 169.765 55.3203)" fill="#F2AAE2"/>
<rect x="208.387" y="16.6973" width="9.79987" height="9.2234" transform="rotate(180 208.387 16.6973)" fill="#F2AAE2"/>
<rect x="160.542" y="45.5205" width="9.79987" height="9.2234" transform="rotate(180 160.542 45.5205)" fill="#F2AAE2"/>
<rect x="198.587" y="7.47363" width="9.2234" height="9.79987" transform="rotate(180 198.587 7.47363)" fill="#F2AAE2"/>
</g>
</g>
<defs>
<clipPath id="clip0_2780_58199">
<rect width="340" height="228" fill="white"/>
</clipPath>
<clipPath id="clip1_2780_58199">
<rect width="344.493" height="230" fill="white" transform="matrix(-1 0 0 -1 342.247 228)"/>
</clipPath>
</defs>
</svg>
