<svg width="170" height="170" viewBox="0 0 170 170" fill="none" xmlns="http://www.w3.org/2000/svg">
<rect width="170" height="170" fill="#1F1F1F"/>
<g style="mix-blend-mode:multiply">
<rect width="170" height="170" fill="#FCFCFC"/>
</g>
<rect x="141.453" y="127.165" width="7.20599" height="7.20599" fill="#383838"/>
<rect x="162.648" y="148.359" width="7.20599" height="7.20599" fill="#383838"/>
<rect x="127.465" y="127.165" width="7.20599" height="7.20599" fill="#383838"/>
<rect x="148.66" y="148.359" width="7.20599" height="7.20599" fill="#383838"/>
<rect x="141.453" y="141.153" width="7.20599" height="7.20599" fill="#383838"/>
<rect x="162.648" y="162.347" width="7.20599" height="7.20599" fill="#383838"/>
<rect x="134.672" y="134.371" width="6.78211" height="6.78211" fill="#383838"/>
<rect x="155.867" y="155.565" width="6.78211" height="6.78211" fill="#383838"/>
<rect x="127.465" y="141.153" width="7.20599" height="7.20599" fill="#383838"/>
<rect x="148.66" y="162.347" width="7.20599" height="7.20599" fill="#383838"/>
<rect x="155.867" y="127.165" width="6.78211" height="7.20599" fill="#383838"/>
<rect x="134.672" y="148.359" width="6.78211" height="7.20599" fill="#383838"/>
<rect x="148.66" y="134.371" width="7.20599" height="6.78211" fill="#383838"/>
<rect x="127.465" y="155.565" width="7.20599" height="6.78211" fill="#383838"/>
<rect x="162.648" y="134.371" width="7.20599" height="6.78211" fill="#383838"/>
<rect x="141.453" y="155.565" width="7.20599" height="6.78211" fill="#383838"/>
<rect x="155.867" y="141.153" width="6.78211" height="7.20599" fill="#383838"/>
<rect x="134.672" y="162.347" width="6.78211" height="7.20599" fill="#383838"/>
<circle cx="15.6838" cy="132.979" r="1.69554" fill="#383838"/>
<circle cx="10.5979" cy="138.066" r="1.69554" fill="#383838"/>
<circle cx="5.50999" cy="143.153" r="1.69554" fill="#383838"/>
<circle cx="15.6838" cy="143.153" r="1.69554" fill="#383838"/>
<circle cx="5.50999" cy="132.979" r="1.69554" fill="#383838"/>
<circle cx="36.8791" cy="154.174" r="1.69554" fill="#383838"/>
<circle cx="26.7053" cy="154.174" r="1.69554" fill="#383838"/>
<circle cx="36.8791" cy="164.347" r="1.69554" fill="#383838"/>
<circle cx="31.7912" cy="159.26" r="1.69554" fill="#383838"/>
<circle cx="26.7053" cy="164.347" r="1.69554" fill="#383838"/>
<rect x="14.2891" width="14.412" height="13.9881" fill="#383838"/>
<rect x="0.298828" y="13.988" width="13.9881" height="14.412" fill="#383838"/>
<rect x="28.6992" y="13.9878" width="13.9881" height="14.412" fill="#383838"/>
<rect x="14.2891" y="28.3999" width="14.412" height="13.9881" fill="#383838"/>
<rect x="71.0879" width="13.9881" height="13.9881" fill="#383838"/>
<rect x="42.6875" width="13.9881" height="13.9881" fill="#383838"/>
<rect x="71.0879" y="28.4001" width="13.9881" height="13.9881" fill="#383838"/>
<rect x="56.6758" y="13.9878" width="14.412" height="14.412" fill="#383838"/>
<rect x="42.6875" y="28.4001" width="13.9881" height="13.9881" fill="#383838"/>
<rect width="42.3882" height="42.3882" transform="translate(42.6875 42.3882)" fill="#383838"/>
<path fill-rule="evenodd" clip-rule="evenodd" d="M127.465 0H113.477V13.9881H127.465V0ZM120.471 10.0797C122.175 10.0797 123.556 8.69819 123.556 6.99405C123.556 5.28992 122.175 3.90844 120.471 3.90844C118.766 3.90844 117.385 5.28992 117.385 6.99405C117.385 8.69819 118.766 10.0797 120.471 10.0797Z" fill="#383838"/>
<path fill-rule="evenodd" clip-rule="evenodd" d="M99.0643 0H85.0762V13.9881H99.0643V0ZM92.0702 10.0797C93.7744 10.0797 95.1558 8.69819 95.1558 6.99405C95.1558 5.28992 93.7744 3.90844 92.0702 3.90844C90.3661 3.90844 88.9846 5.28992 88.9846 6.99405C88.9846 8.69819 90.3661 10.0797 92.0702 10.0797Z" fill="#383838"/>
<path fill-rule="evenodd" clip-rule="evenodd" d="M127.465 28.3999H113.477V42.388H127.465V28.3999ZM120.471 38.4796C122.175 38.4796 123.556 37.0981 123.556 35.394C123.556 33.6898 122.175 32.3083 120.471 32.3083C118.766 32.3083 117.385 33.6898 117.385 35.394C117.385 37.0981 118.766 38.4796 120.471 38.4796Z" fill="#383838"/>
<path fill-rule="evenodd" clip-rule="evenodd" d="M113.474 13.988H99.0625V28.4H113.474V13.988ZM106.268 24.3731C108.024 24.3731 109.448 22.9498 109.448 21.194C109.448 19.4383 108.024 18.0149 106.268 18.0149C104.513 18.0149 103.089 19.4383 103.089 21.194C103.089 22.9498 104.513 24.3731 106.268 24.3731Z" fill="#383838"/>
<path fill-rule="evenodd" clip-rule="evenodd" d="M99.0643 28.4001H85.0762V42.3882H99.0643V28.4001ZM92.0702 38.4798C93.7744 38.4798 95.1558 37.0983 95.1558 35.3942C95.1558 33.6901 93.7744 32.3086 92.0702 32.3086C90.3661 32.3086 88.9846 33.6901 88.9846 35.3942C88.9846 37.0983 90.3661 38.4798 92.0702 38.4798Z" fill="#383838"/>
<rect x="14.2891" y="42.3875" width="14.412" height="13.9881" fill="#383838"/>
<rect x="0.298828" y="56.376" width="13.9881" height="14.412" fill="#383838"/>
<rect x="28.6992" y="56.3757" width="13.9881" height="14.412" fill="#383838"/>
<rect x="14.2891" y="70.7878" width="14.412" height="13.9881" fill="#383838"/>
<path fill-rule="evenodd" clip-rule="evenodd" d="M14.2869 98.7642H0.298828V113.176H14.2869V98.7642ZM7.29352 109.361C9.04929 109.361 10.4726 107.938 10.4726 106.182C10.4726 104.426 9.04929 103.003 7.29352 103.003C5.53774 103.003 4.1144 104.426 4.1144 106.182C4.1144 107.938 5.53774 109.361 7.29352 109.361Z" fill="#383838"/>
<path fill-rule="evenodd" clip-rule="evenodd" d="M42.6873 98.7642H28.6992V113.176H42.6873V98.7642ZM35.6937 109.361C37.4495 109.361 38.8728 107.938 38.8728 106.182C38.8728 104.426 37.4495 103.003 35.6937 103.003C33.9379 103.003 32.5146 104.426 32.5146 106.182C32.5146 107.938 33.9379 109.361 35.6937 109.361Z" fill="#383838"/>
<path fill-rule="evenodd" clip-rule="evenodd" d="M28.701 113.176H14.2891V127.164H28.701V113.176ZM21.7075 123.349C23.4632 123.349 24.8866 121.926 24.8866 120.17C24.8866 118.415 23.4632 116.991 21.7075 116.991C19.9517 116.991 18.5283 118.415 18.5283 120.17C18.5283 121.926 19.9517 123.349 21.7075 123.349Z" fill="#383838"/>
<path fill-rule="evenodd" clip-rule="evenodd" d="M28.701 84.7769H14.2891V98.765H28.701V84.7769ZM21.7075 94.9501C23.4632 94.9501 24.8866 93.5268 24.8866 91.771C24.8866 90.0152 23.4632 88.5919 21.7075 88.5919C19.9517 88.5919 18.5283 90.0152 18.5283 91.771C18.5283 93.5268 19.9517 94.9501 21.7075 94.9501Z" fill="#383838"/>
<path fill-rule="evenodd" clip-rule="evenodd" d="M99.0643 56.3762H85.0762V70.7882H99.0643V56.3762ZM92.0708 66.9732C93.8266 66.9732 95.2499 65.5498 95.2499 63.7941C95.2499 62.0383 93.8266 60.6149 92.0708 60.6149C90.315 60.6149 88.8917 62.0383 88.8917 63.7941C88.8917 65.5498 90.315 66.9732 92.0708 66.9732Z" fill="#383838"/>
<path fill-rule="evenodd" clip-rule="evenodd" d="M127.465 56.376H113.477V70.788H127.465V56.376ZM120.471 66.9729C122.227 66.9729 123.65 65.5496 123.65 63.7938C123.65 62.038 122.227 60.6147 120.471 60.6147C118.715 60.6147 117.292 62.038 117.292 63.7938C117.292 65.5496 118.715 66.9729 120.471 66.9729Z" fill="#383838"/>
<path fill-rule="evenodd" clip-rule="evenodd" d="M113.474 70.7883H99.0625V84.7764H113.474V70.7883ZM106.481 80.9615C108.237 80.9615 109.66 79.5382 109.66 77.7824C109.66 76.0267 108.237 74.6033 106.481 74.6033C104.725 74.6033 103.302 76.0267 103.302 77.7824C103.302 79.5382 104.725 80.9615 106.481 80.9615Z" fill="#383838"/>
<path fill-rule="evenodd" clip-rule="evenodd" d="M113.474 42.3879H99.0625V56.376H113.474V42.3879ZM106.481 52.5612C108.237 52.5612 109.66 51.1378 109.66 49.3821C109.66 47.6263 108.237 46.203 106.481 46.203C104.725 46.203 103.302 47.6263 103.302 49.3821C103.302 51.1378 104.725 52.5612 106.481 52.5612Z" fill="#383838"/>
<path fill-rule="evenodd" clip-rule="evenodd" d="M141.453 56.376H127.465V70.788H141.453V56.376ZM134.459 66.9729C136.215 66.9729 137.638 65.5496 137.638 63.7938C137.638 62.038 136.215 60.6147 134.459 60.6147C132.703 60.6147 131.28 62.038 131.28 63.7938C131.28 65.5496 132.703 66.9729 134.459 66.9729Z" fill="#383838"/>
<path fill-rule="evenodd" clip-rule="evenodd" d="M169.855 56.3757H155.867V70.7877H169.855V56.3757ZM162.862 66.9727C164.618 66.9727 166.041 65.5493 166.041 63.7936C166.041 62.0378 164.618 60.6145 162.862 60.6145C161.106 60.6145 159.683 62.0378 159.683 63.7936C159.683 65.5493 161.106 66.9727 162.862 66.9727Z" fill="#383838"/>
<path fill-rule="evenodd" clip-rule="evenodd" d="M155.865 70.7878H141.453V84.7759H155.865V70.7878ZM148.871 80.961C150.627 80.961 152.051 79.5377 152.051 77.7819C152.051 76.0261 150.627 74.6028 148.871 74.6028C147.116 74.6028 145.692 76.0261 145.692 77.7819C145.692 79.5377 147.116 80.961 148.871 80.961Z" fill="#383838"/>
<path fill-rule="evenodd" clip-rule="evenodd" d="M155.865 42.3875H141.453V56.3756H155.865V42.3875ZM148.871 52.5606C150.627 52.5606 152.051 51.1373 152.051 49.3815C152.051 47.6257 150.627 46.2024 148.871 46.2024C147.116 46.2024 145.692 47.6257 145.692 49.3815C145.692 51.1373 147.116 52.5606 148.871 52.5606Z" fill="#383838"/>
<path fill-rule="evenodd" clip-rule="evenodd" d="M14.2869 98.7646H0.298828V113.177H14.2869V98.7646ZM7.29352 109.362C9.04929 109.362 10.4726 107.938 10.4726 106.182C10.4726 104.427 9.04929 103.003 7.29352 103.003C5.53774 103.003 4.1144 104.427 4.1144 106.182C4.1144 107.938 5.53774 109.362 7.29352 109.362Z" fill="#383838"/>
<path fill-rule="evenodd" clip-rule="evenodd" d="M42.6873 98.7646H28.6992V113.177H42.6873V98.7646ZM35.6937 109.362C37.4495 109.362 38.8728 107.938 38.8728 106.182C38.8728 104.427 37.4495 103.003 35.6937 103.003C33.9379 103.003 32.5146 104.427 32.5146 106.182C32.5146 107.938 33.9379 109.362 35.6937 109.362Z" fill="#383838"/>
<path fill-rule="evenodd" clip-rule="evenodd" d="M28.701 113.177H14.2891V127.165H28.701V113.177ZM21.7075 123.35C23.4632 123.35 24.8866 121.927 24.8866 120.171C24.8866 118.415 23.4632 116.992 21.7075 116.992C19.9517 116.992 18.5283 118.415 18.5283 120.171C18.5283 121.927 19.9517 123.35 21.7075 123.35Z" fill="#383838"/>
<path fill-rule="evenodd" clip-rule="evenodd" d="M28.701 84.7773H14.2891V98.7654H28.701V84.7773ZM21.7075 94.9506C23.4632 94.9506 24.8866 93.5272 24.8866 91.7715C24.8866 90.0157 23.4632 88.5924 21.7075 88.5924C19.9517 88.5924 18.5283 90.0157 18.5283 91.7715C18.5283 93.5272 19.9517 94.9506 21.7075 94.9506Z" fill="#383838"/>
<path fill-rule="evenodd" clip-rule="evenodd" d="M56.6756 98.7646H42.6875V113.177H56.6756V98.7646ZM49.6819 109.362C51.4377 109.362 52.861 107.938 52.861 106.182C52.861 104.427 51.4377 103.003 49.6819 103.003C47.9261 103.003 46.5028 104.427 46.5028 106.182C46.5028 107.938 47.9261 109.362 49.6819 109.362Z" fill="#383838"/>
<path fill-rule="evenodd" clip-rule="evenodd" d="M85.076 98.7646H71.0879V113.177H85.076V98.7646ZM78.0826 109.362C79.8384 109.362 81.2617 107.938 81.2617 106.182C81.2617 104.427 79.8384 103.003 78.0826 103.003C76.3268 103.003 74.9035 104.427 74.9035 106.182C74.9035 107.938 76.3268 109.362 78.0826 109.362Z" fill="#383838"/>
<path fill-rule="evenodd" clip-rule="evenodd" d="M71.0878 113.177H56.6758V127.165H71.0878V113.177ZM64.0942 123.35C65.8499 123.35 67.2733 121.927 67.2733 120.171C67.2733 118.415 65.8499 116.992 64.0942 116.992C62.3384 116.992 60.915 118.415 60.915 120.171C60.915 121.927 62.3384 123.35 64.0942 123.35Z" fill="#383838"/>
<path fill-rule="evenodd" clip-rule="evenodd" d="M71.0878 84.7773H56.6758V98.7654H71.0878V84.7773ZM64.0942 94.9505C65.8499 94.9505 67.2733 93.5272 67.2733 91.7714C67.2733 90.0156 65.8499 88.5923 64.0942 88.5923C62.3384 88.5923 60.915 90.0156 60.915 91.7714C60.915 93.5272 62.3384 94.9505 64.0942 94.9505Z" fill="#383838"/>
<rect x="92.2812" y="84.7769" width="6.78211" height="7.20599" fill="#383838"/>
<rect x="113.477" y="84.7769" width="6.78211" height="7.20599" fill="#383838"/>
<rect x="92.2812" y="98.7646" width="6.78211" height="14.412" fill="#383838"/>
<rect x="85.0762" y="91.9827" width="7.20599" height="6.78211" fill="#383838"/>
<rect x="85.0762" y="113.177" width="7.20599" height="6.78211" fill="#383838"/>
<rect x="99.0625" y="91.9827" width="14.412" height="6.78211" fill="#383838"/>
<rect x="120.258" y="91.9827" width="7.20599" height="6.78211" fill="#383838"/>
<rect x="120.258" y="113.177" width="7.20599" height="6.78211" fill="#383838"/>
<rect x="99.0625" y="113.177" width="14.412" height="6.78211" fill="#383838"/>
<rect x="113.477" y="98.7646" width="6.78211" height="14.412" fill="#383838"/>
<rect x="113.477" y="119.959" width="6.78211" height="7.20599" fill="#383838"/>
<rect x="92.2812" y="119.959" width="6.78211" height="7.20599" fill="#383838"/>
<rect x="141.453" y="84.7769" width="14.412" height="7.20599" fill="#383838"/>
<rect x="162.648" y="84.7769" width="7.20599" height="7.20599" fill="#383838"/>
<rect x="127.465" y="84.7769" width="7.20599" height="7.20599" fill="#383838"/>
<rect x="141.453" y="98.7646" width="14.412" height="14.412" fill="#383838"/>
<rect x="162.648" y="98.7646" width="7.20599" height="14.412" fill="#383838"/>
<rect x="162.648" y="119.959" width="7.20599" height="7.20599" fill="#383838"/>
<rect x="141.453" y="119.959" width="14.412" height="7.20599" fill="#383838"/>
<rect x="134.672" y="91.9827" width="6.78211" height="6.78211" fill="#383838"/>
<rect x="155.867" y="91.9824" width="6.78211" height="6.78211" fill="#383838"/>
<rect x="155.867" y="113.177" width="6.78211" height="6.78211" fill="#383838"/>
<rect x="134.672" y="113.177" width="6.78211" height="6.78211" fill="#383838"/>
<rect x="127.465" y="98.7646" width="7.20599" height="14.412" fill="#383838"/>
<rect x="127.465" y="119.959" width="7.20599" height="7.20599" fill="#383838"/>
<rect x="85.0762" y="127.165" width="7.20599" height="7.20599" fill="#383838"/>
<rect x="120.258" y="162.347" width="7.20599" height="7.20599" fill="#383838"/>
<rect x="92.2812" y="134.371" width="6.78211" height="6.78211" fill="#383838"/>
<rect x="113.477" y="155.565" width="6.78211" height="6.78211" fill="#383838"/>
<rect x="113.477" y="127.165" width="6.78211" height="7.20599" fill="#383838"/>
<rect x="85.0762" y="155.565" width="7.20599" height="6.78211" fill="#383838"/>
<rect x="120.258" y="134.371" width="7.20599" height="6.78211" fill="#383838"/>
<rect x="92.2812" y="162.347" width="6.78211" height="7.20599" fill="#383838"/>
</svg>
