<svg width="170" height="170" viewBox="0 0 170 170" fill="none" xmlns="http://www.w3.org/2000/svg">
<rect width="170" height="170" fill="#F5F5F5"/>
<g style="mix-blend-mode:multiply">
<rect width="170" height="170" fill="#FCFCFC"/>
</g>
<rect x="141.453" y="127.165" width="7.20599" height="7.20599" fill="#DBDBDB"/>
<rect x="162.647" y="148.359" width="7.20599" height="7.20599" fill="#DBDBDB"/>
<rect x="127.465" y="127.165" width="7.20599" height="7.20599" fill="#DBDBDB"/>
<rect x="148.659" y="148.359" width="7.20599" height="7.20599" fill="#DBDBDB"/>
<rect x="141.453" y="141.153" width="7.20599" height="7.20599" fill="#DBDBDB"/>
<rect x="162.647" y="162.347" width="7.20599" height="7.20599" fill="#DBDBDB"/>
<rect x="134.672" y="134.371" width="6.78211" height="6.78211" fill="#DBDBDB"/>
<rect x="155.866" y="155.565" width="6.78211" height="6.78211" fill="#DBDBDB"/>
<rect x="127.465" y="141.153" width="7.20599" height="7.20599" fill="#DBDBDB"/>
<rect x="148.659" y="162.347" width="7.20599" height="7.20599" fill="#DBDBDB"/>
<rect x="155.866" y="127.165" width="6.78211" height="7.20599" fill="#DBDBDB"/>
<rect x="134.672" y="148.359" width="6.78211" height="7.20599" fill="#DBDBDB"/>
<rect x="148.659" y="134.371" width="7.20599" height="6.78211" fill="#DBDBDB"/>
<rect x="127.465" y="155.565" width="7.20599" height="6.78211" fill="#DBDBDB"/>
<rect x="162.647" y="134.371" width="7.20599" height="6.78211" fill="#DBDBDB"/>
<rect x="141.453" y="155.565" width="7.20599" height="6.78211" fill="#DBDBDB"/>
<rect x="155.866" y="141.153" width="6.78211" height="7.20599" fill="#DBDBDB"/>
<rect x="134.672" y="162.347" width="6.78211" height="7.20599" fill="#DBDBDB"/>
<circle cx="15.6838" cy="132.979" r="1.69554" fill="#DBDBDB"/>
<circle cx="10.5979" cy="138.066" r="1.69554" fill="#DBDBDB"/>
<circle cx="5.51097" cy="143.153" r="1.69554" fill="#DBDBDB"/>
<circle cx="15.6838" cy="143.153" r="1.69554" fill="#DBDBDB"/>
<circle cx="5.51097" cy="132.979" r="1.69554" fill="#DBDBDB"/>
<circle cx="36.8782" cy="154.174" r="1.69554" fill="#DBDBDB"/>
<circle cx="26.7053" cy="154.174" r="1.69554" fill="#DBDBDB"/>
<circle cx="36.8782" cy="164.347" r="1.69554" fill="#DBDBDB"/>
<circle cx="31.7912" cy="159.26" r="1.69554" fill="#DBDBDB"/>
<circle cx="26.7053" cy="164.347" r="1.69554" fill="#DBDBDB"/>
<rect x="14.2891" width="14.412" height="13.9881" fill="#DBDBDB"/>
<rect x="0.299805" y="13.988" width="13.9881" height="14.412" fill="#DBDBDB"/>
<rect x="28.6992" y="13.9878" width="13.9881" height="14.412" fill="#DBDBDB"/>
<rect x="14.2891" y="28.3999" width="14.412" height="13.9881" fill="#DBDBDB"/>
<rect x="71.0879" width="13.9881" height="13.9881" fill="#DBDBDB"/>
<rect x="42.6885" width="13.9881" height="13.9881" fill="#DBDBDB"/>
<rect x="71.0879" y="28.4001" width="13.9881" height="13.9881" fill="#DBDBDB"/>
<rect x="56.6768" y="13.9878" width="14.412" height="14.412" fill="#DBDBDB"/>
<rect x="42.6885" y="28.4001" width="13.9881" height="13.9881" fill="#DBDBDB"/>
<rect width="42.3882" height="42.3882" transform="translate(42.6885 42.3882)" fill="#DBDBDB"/>
<path fill-rule="evenodd" clip-rule="evenodd" d="M127.464 0H113.476V13.9881H127.464V0ZM120.47 10.0797C122.174 10.0797 123.555 8.69819 123.555 6.99405C123.555 5.28992 122.174 3.90844 120.47 3.90844C118.766 3.90844 117.384 5.28992 117.384 6.99405C117.384 8.69819 118.766 10.0797 120.47 10.0797Z" fill="#DBDBDB"/>
<path fill-rule="evenodd" clip-rule="evenodd" d="M99.0643 0H85.0762V13.9881H99.0643V0ZM92.0702 10.0797C93.7744 10.0797 95.1558 8.69819 95.1558 6.99405C95.1558 5.28992 93.7744 3.90844 92.0702 3.90844C90.3661 3.90844 88.9846 5.28992 88.9846 6.99405C88.9846 8.69819 90.3661 10.0797 92.0702 10.0797Z" fill="#DBDBDB"/>
<path fill-rule="evenodd" clip-rule="evenodd" d="M127.464 28.3999H113.476V42.388H127.464V28.3999ZM120.47 38.4796C122.174 38.4796 123.555 37.0981 123.555 35.394C123.555 33.6898 122.174 32.3083 120.47 32.3083C118.766 32.3083 117.384 33.6898 117.384 35.394C117.384 37.0981 118.766 38.4796 120.47 38.4796Z" fill="#DBDBDB"/>
<path fill-rule="evenodd" clip-rule="evenodd" d="M113.475 13.988H99.0635V28.4H113.475V13.988ZM106.269 24.3731C108.025 24.3731 109.449 22.9498 109.449 21.194C109.449 19.4383 108.025 18.0149 106.269 18.0149C104.514 18.0149 103.09 19.4383 103.09 21.194C103.09 22.9498 104.514 24.3731 106.269 24.3731Z" fill="#DBDBDB"/>
<path fill-rule="evenodd" clip-rule="evenodd" d="M99.0643 28.4001H85.0762V42.3882H99.0643V28.4001ZM92.0702 38.4798C93.7744 38.4798 95.1558 37.0983 95.1558 35.3942C95.1558 33.6901 93.7744 32.3086 92.0702 32.3086C90.3661 32.3086 88.9846 33.6901 88.9846 35.3942C88.9846 37.0983 90.3661 38.4798 92.0702 38.4798Z" fill="#DBDBDB"/>
<rect x="14.2891" y="42.3875" width="14.412" height="13.9881" fill="#DBDBDB"/>
<rect x="0.299805" y="56.376" width="13.9881" height="14.412" fill="#DBDBDB"/>
<rect x="28.6992" y="56.3757" width="13.9881" height="14.412" fill="#DBDBDB"/>
<rect x="14.2891" y="70.7878" width="14.412" height="13.9881" fill="#DBDBDB"/>
<path fill-rule="evenodd" clip-rule="evenodd" d="M14.2879 98.7642H0.299805V113.176H14.2879V98.7642ZM7.29449 109.361C9.05027 109.361 10.4736 107.938 10.4736 106.182C10.4736 104.426 9.05027 103.003 7.29449 103.003C5.53872 103.003 4.11538 104.426 4.11538 106.182C4.11538 107.938 5.53872 109.361 7.29449 109.361Z" fill="#DBDBDB"/>
<path fill-rule="evenodd" clip-rule="evenodd" d="M42.6873 98.7642H28.6992V113.176H42.6873V98.7642ZM35.6937 109.361C37.4495 109.361 38.8728 107.938 38.8728 106.182C38.8728 104.426 37.4495 103.003 35.6937 103.003C33.9379 103.003 32.5146 104.426 32.5146 106.182C32.5146 107.938 33.9379 109.361 35.6937 109.361Z" fill="#DBDBDB"/>
<path fill-rule="evenodd" clip-rule="evenodd" d="M28.701 113.176H14.2891V127.164H28.701V113.176ZM21.7075 123.349C23.4632 123.349 24.8866 121.926 24.8866 120.17C24.8866 118.415 23.4632 116.991 21.7075 116.991C19.9517 116.991 18.5283 118.415 18.5283 120.17C18.5283 121.926 19.9517 123.349 21.7075 123.349Z" fill="#DBDBDB"/>
<path fill-rule="evenodd" clip-rule="evenodd" d="M28.701 84.7769H14.2891V98.765H28.701V84.7769ZM21.7075 94.9501C23.4632 94.9501 24.8866 93.5268 24.8866 91.771C24.8866 90.0152 23.4632 88.5919 21.7075 88.5919C19.9517 88.5919 18.5283 90.0152 18.5283 91.771C18.5283 93.5268 19.9517 94.9501 21.7075 94.9501Z" fill="#DBDBDB"/>
<path fill-rule="evenodd" clip-rule="evenodd" d="M99.0643 56.3762H85.0762V70.7882H99.0643V56.3762ZM92.0708 66.9732C93.8266 66.9732 95.2499 65.5498 95.2499 63.7941C95.2499 62.0383 93.8266 60.6149 92.0708 60.6149C90.315 60.6149 88.8917 62.0383 88.8917 63.7941C88.8917 65.5498 90.315 66.9732 92.0708 66.9732Z" fill="#DBDBDB"/>
<path fill-rule="evenodd" clip-rule="evenodd" d="M127.464 56.376H113.476V70.788H127.464V56.376ZM120.47 66.9729C122.226 66.9729 123.649 65.5496 123.649 63.7938C123.649 62.038 122.226 60.6147 120.47 60.6147C118.714 60.6147 117.291 62.038 117.291 63.7938C117.291 65.5496 118.714 66.9729 120.47 66.9729Z" fill="#DBDBDB"/>
<path fill-rule="evenodd" clip-rule="evenodd" d="M113.475 70.7883H99.0635V84.7764H113.475V70.7883ZM106.482 80.9615C108.237 80.9615 109.661 79.5382 109.661 77.7824C109.661 76.0267 108.237 74.6033 106.482 74.6033C104.726 74.6033 103.303 76.0267 103.303 77.7824C103.303 79.5382 104.726 80.9615 106.482 80.9615Z" fill="#DBDBDB"/>
<path fill-rule="evenodd" clip-rule="evenodd" d="M113.475 42.3879H99.0635V56.376H113.475V42.3879ZM106.482 52.5612C108.237 52.5612 109.661 51.1378 109.661 49.3821C109.661 47.6263 108.237 46.203 106.482 46.203C104.726 46.203 103.303 47.6263 103.303 49.3821C103.303 51.1378 104.726 52.5612 106.482 52.5612Z" fill="#DBDBDB"/>
<path fill-rule="evenodd" clip-rule="evenodd" d="M141.453 56.376H127.465V70.788H141.453V56.376ZM134.459 66.9729C136.215 66.9729 137.638 65.5496 137.638 63.7938C137.638 62.038 136.215 60.6147 134.459 60.6147C132.703 60.6147 131.28 62.038 131.28 63.7938C131.28 65.5496 132.703 66.9729 134.459 66.9729Z" fill="#DBDBDB"/>
<path fill-rule="evenodd" clip-rule="evenodd" d="M169.854 56.3757H155.866V70.7877H169.854V56.3757ZM162.861 66.9727C164.617 66.9727 166.04 65.5493 166.04 63.7936C166.04 62.0378 164.617 60.6145 162.861 60.6145C161.105 60.6145 159.682 62.0378 159.682 63.7936C159.682 65.5493 161.105 66.9727 162.861 66.9727Z" fill="#DBDBDB"/>
<path fill-rule="evenodd" clip-rule="evenodd" d="M155.865 70.7878H141.453V84.7759H155.865V70.7878ZM148.871 80.961C150.627 80.961 152.051 79.5377 152.051 77.7819C152.051 76.0261 150.627 74.6028 148.871 74.6028C147.116 74.6028 145.692 76.0261 145.692 77.7819C145.692 79.5377 147.116 80.961 148.871 80.961Z" fill="#DBDBDB"/>
<path fill-rule="evenodd" clip-rule="evenodd" d="M155.865 42.3875H141.453V56.3756H155.865V42.3875ZM148.871 52.5606C150.627 52.5606 152.051 51.1373 152.051 49.3815C152.051 47.6257 150.627 46.2024 148.871 46.2024C147.116 46.2024 145.692 47.6257 145.692 49.3815C145.692 51.1373 147.116 52.5606 148.871 52.5606Z" fill="#DBDBDB"/>
<path fill-rule="evenodd" clip-rule="evenodd" d="M14.2879 98.7646H0.299805V113.177H14.2879V98.7646ZM7.29449 109.362C9.05027 109.362 10.4736 107.938 10.4736 106.182C10.4736 104.427 9.05027 103.003 7.29449 103.003C5.53872 103.003 4.11538 104.427 4.11538 106.182C4.11538 107.938 5.53872 109.362 7.29449 109.362Z" fill="#DBDBDB"/>
<path fill-rule="evenodd" clip-rule="evenodd" d="M42.6873 98.7646H28.6992V113.177H42.6873V98.7646ZM35.6937 109.362C37.4495 109.362 38.8728 107.938 38.8728 106.182C38.8728 104.427 37.4495 103.003 35.6937 103.003C33.9379 103.003 32.5146 104.427 32.5146 106.182C32.5146 107.938 33.9379 109.362 35.6937 109.362Z" fill="#DBDBDB"/>
<path fill-rule="evenodd" clip-rule="evenodd" d="M28.701 113.177H14.2891V127.165H28.701V113.177ZM21.7075 123.35C23.4632 123.35 24.8866 121.927 24.8866 120.171C24.8866 118.415 23.4632 116.992 21.7075 116.992C19.9517 116.992 18.5283 118.415 18.5283 120.171C18.5283 121.927 19.9517 123.35 21.7075 123.35Z" fill="#DBDBDB"/>
<path fill-rule="evenodd" clip-rule="evenodd" d="M28.701 84.7773H14.2891V98.7654H28.701V84.7773ZM21.7075 94.9506C23.4632 94.9506 24.8866 93.5272 24.8866 91.7715C24.8866 90.0157 23.4632 88.5924 21.7075 88.5924C19.9517 88.5924 18.5283 90.0157 18.5283 91.7715C18.5283 93.5272 19.9517 94.9506 21.7075 94.9506Z" fill="#DBDBDB"/>
<path fill-rule="evenodd" clip-rule="evenodd" d="M56.6766 98.7646H42.6885V113.177H56.6766V98.7646ZM49.6829 109.362C51.4387 109.362 52.862 107.938 52.862 106.182C52.862 104.427 51.4387 103.003 49.6829 103.003C47.9271 103.003 46.5038 104.427 46.5038 106.182C46.5038 107.938 47.9271 109.362 49.6829 109.362Z" fill="#DBDBDB"/>
<path fill-rule="evenodd" clip-rule="evenodd" d="M85.076 98.7646H71.0879V113.177H85.076V98.7646ZM78.0826 109.362C79.8384 109.362 81.2617 107.938 81.2617 106.182C81.2617 104.427 79.8384 103.003 78.0826 103.003C76.3268 103.003 74.9035 104.427 74.9035 106.182C74.9035 107.938 76.3268 109.362 78.0826 109.362Z" fill="#DBDBDB"/>
<path fill-rule="evenodd" clip-rule="evenodd" d="M71.0887 113.177H56.6768V127.165H71.0887V113.177ZM64.0951 123.35C65.8509 123.35 67.2742 121.927 67.2742 120.171C67.2742 118.415 65.8509 116.992 64.0951 116.992C62.3394 116.992 60.916 118.415 60.916 120.171C60.916 121.927 62.3394 123.35 64.0951 123.35Z" fill="#DBDBDB"/>
<path fill-rule="evenodd" clip-rule="evenodd" d="M71.0887 84.7773H56.6768V98.7654H71.0887V84.7773ZM64.0951 94.9505C65.8509 94.9505 67.2742 93.5272 67.2742 91.7714C67.2742 90.0156 65.8509 88.5923 64.0951 88.5923C62.3394 88.5923 60.916 90.0156 60.916 91.7714C60.916 93.5272 62.3394 94.9505 64.0951 94.9505Z" fill="#DBDBDB"/>
<rect x="92.2822" y="84.7769" width="6.78211" height="7.20599" fill="#DBDBDB"/>
<rect x="113.476" y="84.7769" width="6.78211" height="7.20599" fill="#DBDBDB"/>
<rect x="92.2822" y="98.7646" width="6.78211" height="14.412" fill="#DBDBDB"/>
<rect x="85.0762" y="91.9827" width="7.20599" height="6.78211" fill="#DBDBDB"/>
<rect x="85.0762" y="113.177" width="7.20599" height="6.78211" fill="#DBDBDB"/>
<rect x="99.0635" y="91.9827" width="14.412" height="6.78211" fill="#DBDBDB"/>
<rect x="120.258" y="91.9827" width="7.20599" height="6.78211" fill="#DBDBDB"/>
<rect x="120.258" y="113.177" width="7.20599" height="6.78211" fill="#DBDBDB"/>
<rect x="99.0635" y="113.177" width="14.412" height="6.78211" fill="#DBDBDB"/>
<rect x="113.476" y="98.7646" width="6.78211" height="14.412" fill="#DBDBDB"/>
<rect x="113.476" y="119.959" width="6.78211" height="7.20599" fill="#DBDBDB"/>
<rect x="92.2822" y="119.959" width="6.78211" height="7.20599" fill="#DBDBDB"/>
<rect x="141.453" y="84.7769" width="14.412" height="7.20599" fill="#DBDBDB"/>
<rect x="162.647" y="84.7769" width="7.20599" height="7.20599" fill="#DBDBDB"/>
<rect x="127.465" y="84.7769" width="7.20599" height="7.20599" fill="#DBDBDB"/>
<rect x="141.453" y="98.7646" width="14.412" height="14.412" fill="#DBDBDB"/>
<rect x="162.647" y="98.7646" width="7.20599" height="14.412" fill="#DBDBDB"/>
<rect x="162.647" y="119.959" width="7.20599" height="7.20599" fill="#DBDBDB"/>
<rect x="141.453" y="119.959" width="14.412" height="7.20599" fill="#DBDBDB"/>
<rect x="134.672" y="91.9827" width="6.78211" height="6.78211" fill="#DBDBDB"/>
<rect x="155.866" y="91.9824" width="6.78211" height="6.78211" fill="#DBDBDB"/>
<rect x="155.866" y="113.177" width="6.78211" height="6.78211" fill="#DBDBDB"/>
<rect x="134.672" y="113.177" width="6.78211" height="6.78211" fill="#DBDBDB"/>
<rect x="127.465" y="98.7646" width="7.20599" height="14.412" fill="#DBDBDB"/>
<rect x="127.465" y="119.959" width="7.20599" height="7.20599" fill="#DBDBDB"/>
<rect x="85.0762" y="127.165" width="7.20599" height="7.20599" fill="#DBDBDB"/>
<rect x="120.258" y="162.347" width="7.20599" height="7.20599" fill="#DBDBDB"/>
<rect x="92.2822" y="134.371" width="6.78211" height="6.78211" fill="#DBDBDB"/>
<rect x="113.476" y="155.565" width="6.78211" height="6.78211" fill="#DBDBDB"/>
<rect x="113.476" y="127.165" width="6.78211" height="7.20599" fill="#DBDBDB"/>
<rect x="85.0762" y="155.565" width="7.20599" height="6.78211" fill="#DBDBDB"/>
<rect x="120.258" y="134.371" width="7.20599" height="6.78211" fill="#DBDBDB"/>
<rect x="92.2822" y="162.347" width="6.78211" height="7.20599" fill="#DBDBDB"/>
</svg>
