<svg width="18" height="18" viewBox="0 0 18 18" fill="none" xmlns="http://www.w3.org/2000/svg">
<g clip-path="url(#clip0_1413_65722)">
<path fill-rule="evenodd" clip-rule="evenodd" d="M0.75 0.75H17.25V17.25H0.75V0.75ZM8.41475 5.41475C8.63442 5.19508 8.99058 5.19508 9.21025 5.41475C9.42992 5.63442 9.42992 5.99058 9.21025 6.21025L6.98299 8.4375H12.375C12.6857 8.4375 12.9375 8.68934 12.9375 9C12.9375 9.31066 12.6857 9.5625 12.375 9.5625H6.98299L9.21025 11.7898C9.42992 12.0094 9.42992 12.3656 9.21025 12.5852C8.99058 12.8049 8.63442 12.8049 8.41475 12.5852L5.22725 9.39775C5.00758 9.17808 5.00758 8.82192 5.22725 8.60225L8.41475 5.41475Z" fill="#141414"/>
</g>
<defs>
<clipPath id="clip0_1413_65722">
<rect width="18" height="18" fill="white"/>
</clipPath>
</defs>
</svg>
