<svg width="18" height="18" viewBox="0 0 18 18" fill="none" xmlns="http://www.w3.org/2000/svg">
<g clip-path="url(#clip0_1533_1135)">
<path fill-rule="evenodd" clip-rule="evenodd" d="M17.25 0.75H0.75V17.25H17.25V0.75ZM9.58525 5.41475C9.36558 5.19508 9.00942 5.19508 8.78975 5.41475C8.57008 5.63442 8.57008 5.99058 8.78975 6.21025L11.017 8.4375H5.625C5.31434 8.4375 5.0625 8.68934 5.0625 9C5.0625 9.31066 5.31434 9.5625 5.625 9.5625H11.017L8.78975 11.7898C8.57008 12.0094 8.57008 12.3656 8.78975 12.5852C9.00942 12.8049 9.36558 12.8049 9.58525 12.5852L12.7727 9.39775C12.9924 9.17808 12.9924 8.82192 12.7727 8.60225L9.58525 5.41475Z" fill="white"/>
</g>
<defs>
<clipPath id="clip0_1533_1135">
<rect width="18" height="18" fill="white"/>
</clipPath>
</defs>
</svg>
