<svg width="18" height="18" viewBox="0 0 18 18" fill="none" xmlns="http://www.w3.org/2000/svg">
<g clip-path="url(#clip0_1_2)">
<mask id="mask0_1_2" style="mask-type:luminance" maskUnits="userSpaceOnUse" x="0" y="0" width="18" height="18">
<path d="M0 18L18 18L18 0L1.57361e-06 -1.57361e-06L0 18Z" fill="white"/>
</mask>
<g mask="url(#mask0_1_2)">
<path fill-rule="evenodd" clip-rule="evenodd" d="M0.75 17.25L17.25 17.25L17.25 0.75L0.750001 0.749999L0.75 17.25ZM8.41475 12.5852C8.63442 12.8049 8.99058 12.8049 9.21025 12.5852C9.42992 12.3656 9.42992 12.0094 9.21025 11.7897L6.983 9.5625L12.375 9.5625C12.6857 9.5625 12.9375 9.31066 12.9375 9C12.9375 8.68934 12.6857 8.4375 12.375 8.4375L6.983 8.4375L9.21025 6.2102C9.42992 5.9906 9.42992 5.6344 9.21025 5.4148C8.99058 5.1951 8.63442 5.1951 8.41475 5.4148L5.2273 8.60225C5.0076 8.82192 5.0076 9.17808 5.2273 9.39775L8.41475 12.5852Z" fill="white"/>
</g>
</g>
<defs>
<clipPath id="clip0_1_2">
<rect width="18" height="18" fill="white" transform="translate(18 18) rotate(-180)"/>
</clipPath>
</defs>
</svg>
