<svg width="18" height="18" viewBox="0 0 18 18" fill="none" xmlns="http://www.w3.org/2000/svg">
<g clip-path="url(#clip0_1_161)">
<path fill-rule="evenodd" clip-rule="evenodd" d="M17.25 17.25H0.75V0.75H17.25V17.25ZM4.5 12.9749C4.21005 12.9749 3.97485 13.2101 3.97485 13.5C3.97485 13.7899 4.21005 14.0251 4.5 14.0251H13.5L13.6055 14.0142C13.8448 13.9653 14.0251 13.7538 14.0251 13.5C14.0251 13.2462 13.8448 13.0347 13.6055 12.9858L13.5 12.9749H4.5ZM9 3.97485C8.71005 3.97485 8.47485 4.21005 8.47485 4.5V9.23218L6.74634 7.50366L6.66357 7.43628C6.45982 7.30196 6.18297 7.32436 6.00366 7.50366C5.82436 7.68297 5.80196 7.95982 5.93628 8.16357L6.00366 8.24634L8.62866 10.8713L8.71143 10.9387C8.91518 11.073 9.19203 11.0506 9.37134 10.8713L11.9963 8.24634L12.0637 8.16357C12.198 7.95982 12.1756 7.68297 11.9963 7.50366C11.817 7.32436 11.5402 7.30196 11.3364 7.43628L11.2537 7.50366L9.52515 9.23218V4.5C9.52515 4.21005 9.28995 3.97485 9 3.97485Z" fill="white"/>
</g>
<defs>
<clipPath id="clip0_1_161">
<rect width="18" height="18" fill="white"/>
</clipPath>
</defs>
</svg>
