<svg width="18" height="18" viewBox="0 0 18 18" fill="none" xmlns="http://www.w3.org/2000/svg">
<g clip-path="url(#clip0_1_293)">
<path d="M17.25 17.25H0.75V0.75H17.25V17.25ZM6.87891 6.05078C6.56832 6.05078 6.31653 6.30272 6.31641 6.61328C6.31641 6.92394 6.56825 7.17578 6.87891 7.17578H10.0283L6.21582 10.9883C5.99615 11.208 5.99615 11.5645 6.21582 11.7842C6.43544 12.0037 6.79109 12.0037 7.01074 11.7842L10.8242 7.97168V11.1211C10.8242 11.4318 11.0761 11.6836 11.3867 11.6836C11.6972 11.6834 11.9492 11.4316 11.9492 11.1211V6.61328C11.9491 6.30285 11.6971 6.05099 11.3867 6.05078H6.87891Z" fill="white"/>
</g>
<defs>
<clipPath id="clip0_1_293">
<rect width="18" height="18" fill="white"/>
</clipPath>
</defs>
</svg>
